<svg width="16" height="16" viewBox="0 0 16 16" fill="none" xmlns="http://www.w3.org/2000/svg">
<path d="M9.85999 12.9462C9.78666 12.9462 9.70667 12.9263 9.64 12.8929C9.39334 12.7663 9.29333 12.4663 9.41333 12.2196L10.84 9.37292C10.9267 9.20626 11.1 9.09961 11.2867 9.09961C11.4733 9.09961 11.6467 9.20626 11.7333 9.3796L13.16 12.2263C13.2867 12.4729 13.1867 12.7729 12.9333 12.8996C12.6867 13.0262 12.3867 12.9263 12.26 12.6729L11.2867 10.7196L10.3133 12.6729C10.22 12.8463 10.04 12.9462 9.85999 12.9462Z" fill="#BDBDBD"/>
<path d="M12.4534 12.4395H10.1068C9.83345 12.4395 9.60678 12.2128 9.60678 11.9395C9.60678 11.6661 9.83345 11.4395 10.1068 11.4395H12.4534C12.7268 11.4395 12.9534 11.6661 12.9534 11.9395C12.9534 12.2128 12.7334 12.4395 12.4534 12.4395Z" fill="#BDBDBD"/>
<path d="M11.2799 15.1669C9.13989 15.1669 7.39322 13.4269 7.39322 11.2802C7.39322 9.13353 9.13322 7.39355 11.2799 7.39355C13.4199 7.39355 15.1666 9.13353 15.1666 11.2802C15.1666 13.4269 13.4266 15.1669 11.2799 15.1669ZM11.2799 8.40019C9.68655 8.40019 8.39322 9.69353 8.39322 11.2869C8.39322 12.8802 9.68655 14.1735 11.2799 14.1735C12.8666 14.1735 14.1666 12.8802 14.1666 11.2869C14.1666 9.69353 12.8732 8.40019 11.2799 8.40019Z" fill="#BDBDBD"/>
<path d="M3.24001 8.46619C2.50001 8.46619 1.91334 8.2595 1.50001 7.8595C1.06001 7.43283 0.833344 6.78617 0.833344 5.95284V3.33952C0.833344 1.71952 1.72668 0.826172 3.34668 0.826172H5.96001C6.79334 0.826172 7.43335 1.04617 7.86668 1.49284C8.28668 1.92617 8.49335 2.55286 8.47335 3.35286V5.95284C8.49335 6.76617 8.28668 7.40619 7.85334 7.83952C7.42001 8.27285 6.78 8.47285 5.95334 8.45951H3.35334C3.30668 8.46618 3.27334 8.46619 3.24001 8.46619ZM3.34668 1.83285C2.27335 1.83285 1.83334 2.27286 1.83334 3.34619V5.95951C1.83334 6.51285 1.95334 6.91283 2.19334 7.14616C2.42667 7.37283 2.80001 7.47285 3.32668 7.46619H5.95334C6.51334 7.47952 6.90001 7.36619 7.13334 7.13285C7.36667 6.89952 7.47334 6.50619 7.46001 5.96619V3.33952C7.47334 2.80618 7.36668 2.42616 7.14001 2.19283C6.90668 1.95283 6.50667 1.83285 5.95334 1.83285H3.34668Z" fill="#BDBDBD"/>
<path d="M5.99997 4.40039H3.2933C3.01997 4.40039 2.7933 4.17372 2.7933 3.90039C2.7933 3.62706 3.01997 3.40039 3.2933 3.40039H5.99997C6.2733 3.40039 6.49997 3.62706 6.49997 3.90039C6.49997 4.17372 6.27997 4.40039 5.99997 4.40039Z" fill="#BDBDBD"/>
<path d="M4.65332 4.39962C4.37999 4.39962 4.15332 4.17295 4.15332 3.89962V3.44629C4.15332 3.17296 4.37999 2.94629 4.65332 2.94629C4.92665 2.94629 5.15332 3.17296 5.15332 3.44629V3.89962C5.15332 4.17295 4.92665 4.39962 4.65332 4.39962Z" fill="#BDBDBD"/>
<path d="M3.2933 6.50688C3.01997 6.50688 2.7933 6.28021 2.7933 6.00688C2.7933 5.73354 3.01997 5.50688 3.2933 5.50688C4.13997 5.50688 4.82664 4.78689 4.82664 3.89355C4.82664 3.62022 5.05331 3.39355 5.32664 3.39355C5.59997 3.39355 5.82664 3.62022 5.82664 3.89355C5.82664 5.33355 4.6933 6.50688 3.2933 6.50688Z" fill="#BDBDBD"/>
<path d="M6.00661 6.50671C5.38661 6.50671 4.79328 6.19339 4.37328 5.64005C4.20661 5.42005 4.25329 5.10669 4.47329 4.94002C4.69329 4.77335 5.00661 4.82004 5.17328 5.04004C5.39995 5.3467 5.69995 5.51338 6.00661 5.51338C6.27995 5.51338 6.50661 5.74005 6.50661 6.01338C6.50661 6.28672 6.27995 6.50671 6.00661 6.50671Z" fill="#BDBDBD"/>
<path d="M6.00001 15.1667C3.15334 15.1667 0.833344 12.8467 0.833344 10C0.833344 9.72667 1.06001 9.5 1.33334 9.5C1.60668 9.5 1.83334 9.72667 1.83334 10C1.83334 11.9733 3.20668 13.6267 5.05334 14.06L4.87334 13.76C4.73334 13.52 4.80668 13.2133 5.04668 13.0733C5.28001 12.9333 5.59335 13.0067 5.73335 13.2467L6.43334 14.4133C6.52667 14.5667 6.52668 14.76 6.44001 14.9133C6.34668 15.0667 6.18001 15.1667 6.00001 15.1667Z" fill="#BDBDBD"/>
<path d="M14.6666 6.49967C14.3933 6.49967 14.1666 6.27301 14.1666 5.99967C14.1666 4.02634 12.7933 2.37299 10.9466 1.93966L11.1266 2.23966C11.2666 2.47966 11.1933 2.78635 10.9533 2.92635C10.7199 3.06635 10.4066 2.99301 10.2666 2.75301L9.56662 1.58634C9.47328 1.43301 9.47328 1.23968 9.55994 1.08634C9.64661 0.926344 9.81328 0.833008 9.99328 0.833008C12.84 0.833008 15.16 3.15301 15.16 5.99967C15.1666 6.27301 14.9399 6.49967 14.6666 6.49967Z" fill="#BDBDBD"/>
</svg>
