<svg width="16" height="16" viewBox="0 0 16 16" fill="none" xmlns="http://www.w3.org/2000/svg">
<path d="M10 15.1663H6.00001C2.38001 15.1663 0.833344 13.6197 0.833344 9.99967V5.99967C0.833344 2.37967 2.38001 0.833008 6.00001 0.833008H7.33334C7.60668 0.833008 7.83334 1.05967 7.83334 1.33301C7.83334 1.60634 7.60668 1.83301 7.33334 1.83301H6.00001C2.92668 1.83301 1.83334 2.92634 1.83334 5.99967V9.99967C1.83334 13.073 2.92668 14.1663 6.00001 14.1663H10C13.0733 14.1663 14.1667 13.073 14.1667 9.99967V8.66634C14.1667 8.39301 14.3933 8.16634 14.6667 8.16634C14.94 8.16634 15.1667 8.39301 15.1667 8.66634V9.99967C15.1667 13.6197 13.62 15.1663 10 15.1663Z" fill="#BDBDBD"/>
<path d="M5.66667 11.7934C5.26 11.7934 4.88667 11.6467 4.61334 11.38C4.28667 11.0534 4.14667 10.58 4.22 10.08L4.50667 8.07337C4.56 7.68671 4.81334 7.18671 5.08667 6.91337L10.34 1.66004C11.6667 0.333372 13.0133 0.333372 14.34 1.66004C15.0667 2.38671 15.3933 3.12671 15.3267 3.86671C15.2667 4.46671 14.9467 5.05337 14.34 5.65337L9.08667 10.9067C8.81334 11.18 8.31334 11.4334 7.92667 11.4867L5.92 11.7734C5.83334 11.7934 5.74667 11.7934 5.66667 11.7934ZM11.0467 2.36671L5.79334 7.62004C5.66667 7.74671 5.52 8.04004 5.49334 8.21337L5.20667 10.22C5.18 10.4134 5.22 10.5734 5.32 10.6734C5.42 10.7734 5.58 10.8134 5.77334 10.7867L7.78 10.5C7.95334 10.4734 8.25334 10.3267 8.37334 10.2L13.6267 4.94671C14.06 4.51337 14.2867 4.12671 14.32 3.76671C14.36 3.33337 14.1333 2.87337 13.6267 2.36004C12.56 1.29337 11.8267 1.59337 11.0467 2.36671Z" fill="#BDBDBD"/>
<path d="M13.2333 6.55319C13.1867 6.55319 13.14 6.54652 13.1 6.53319C11.3467 6.03986 9.95332 4.64652 9.45999 2.89319C9.38665 2.62652 9.53999 2.35319 9.80665 2.27319C10.0733 2.19986 10.3467 2.35319 10.42 2.61986C10.82 4.03986 11.9467 5.16652 13.3667 5.56652C13.6333 5.63986 13.7867 5.91985 13.7133 6.18652C13.6533 6.41319 13.4533 6.55319 13.2333 6.55319Z" fill="#BDBDBD"/>
</svg>
