<svg width="16" height="16" viewBox="0 0 16 16" fill="none" xmlns="http://www.w3.org/2000/svg">
<path d="M12.4067 4.45289C12.1333 4.45289 11.9067 4.22622 11.9067 3.95289V2.94622C11.9067 2.54622 11.58 2.21289 11.1733 2.21289H2.55333C2.15333 2.21289 1.81999 2.53956 1.81999 2.94622V3.95289C1.81999 4.22622 1.59333 4.45289 1.31999 4.45289C1.04666 4.45289 0.82666 4.22622 0.82666 3.95289V2.94622C0.82666 1.99289 1.60666 1.21289 2.55999 1.21289H11.1733C12.1267 1.21289 12.9067 1.98622 12.9067 2.94622V3.95289C12.9067 4.22622 12.68 4.45289 12.4067 4.45289Z" fill="#BDBDBD"/>
<path d="M6.86667 12.5662C6.59334 12.5662 6.36667 12.3396 6.36667 12.0662V2.21289C6.36667 1.93956 6.59334 1.71289 6.86667 1.71289C7.14 1.71289 7.36667 1.93956 7.36667 2.21289V12.0662C7.36667 12.3462 7.14 12.5662 6.86667 12.5662Z" fill="#BDBDBD"/>
<path d="M8.32001 12.5664H4.60001C4.32667 12.5664 4.10001 12.3397 4.10001 12.0664C4.10001 11.7931 4.32667 11.5664 4.60001 11.5664H8.32001C8.59334 11.5664 8.82001 11.7931 8.82001 12.0664C8.82001 12.3397 8.59334 12.5664 8.32001 12.5664Z" fill="#BDBDBD"/>
<path d="M14.6733 8.80005C14.4 8.80005 14.1733 8.57339 14.1733 8.30005V7.76672C14.1733 7.56005 14 7.38672 13.7933 7.38672H9.12C8.84666 7.38672 8.62 7.16005 8.62 6.88672C8.62 6.61339 8.84666 6.38672 9.12 6.38672H13.7933C14.5533 6.38672 15.1733 7.00672 15.1733 7.76672V8.30005C15.1733 8.58005 14.9533 8.80005 14.6733 8.80005Z" fill="#BDBDBD"/>
<path d="M10.72 14.7871C10.4467 14.7871 10.22 14.5604 10.22 14.2871V7.24707C10.22 6.97374 10.4467 6.74707 10.72 6.74707C10.9933 6.74707 11.22 6.97374 11.22 7.24707V14.2871C11.22 14.5604 10.9933 14.7871 10.72 14.7871Z" fill="#BDBDBD"/>
<path d="M12.1467 14.7871H9.29334C9.02 14.7871 8.79333 14.5604 8.79333 14.2871C8.79333 14.0138 9.02 13.7871 9.29334 13.7871H12.1467C12.42 13.7871 12.6467 14.0138 12.6467 14.2871C12.6467 14.5604 12.42 14.7871 12.1467 14.7871Z" fill="#BDBDBD"/>
</svg>
