<svg width="16" height="16" viewBox="0 0 16 16" fill="none" xmlns="http://www.w3.org/2000/svg">
<path d="M8 8.8669C7.91334 8.8669 7.82667 8.8469 7.74667 8.80023L1.86001 5.39356C1.62667 5.25356 1.54001 4.9469 1.68001 4.7069C1.82001 4.4669 2.12667 4.3869 2.36667 4.5269L8 7.7869L13.6 4.5469C13.84 4.4069 14.1467 4.49356 14.2867 4.7269C14.4267 4.9669 14.34 5.27356 14.1067 5.41356L8.26 8.80023C8.17334 8.84023 8.08667 8.8669 8 8.8669Z" fill="#BDBDBD"/>
<path d="M8 14.9065C7.72667 14.9065 7.5 14.6799 7.5 14.4065V8.35986C7.5 8.08653 7.72667 7.85986 8 7.85986C8.27333 7.85986 8.5 8.08653 8.5 8.35986V14.4065C8.5 14.6799 8.27333 14.9065 8 14.9065Z" fill="#BDBDBD"/>
<path d="M7.99999 15.1668C7.41332 15.1668 6.83332 15.0402 6.37332 14.7868L2.81332 12.8068C1.84666 12.2735 1.09332 10.9868 1.09332 9.88016V6.1135C1.09332 5.00683 1.84666 3.72683 2.81332 3.18683L6.37332 1.2135C7.28666 0.706829 8.71332 0.706829 9.62666 1.2135L13.1867 3.1935C14.1533 3.72683 14.9067 5.0135 14.9067 6.12016V9.88683C14.9067 10.9935 14.1533 12.2735 13.1867 12.8135L9.62666 14.7868C9.16666 15.0402 8.58666 15.1668 7.99999 15.1668ZM7.99999 1.8335C7.57999 1.8335 7.16666 1.92016 6.85999 2.08683L3.29999 4.06683C2.65999 4.42016 2.09332 5.38016 2.09332 6.1135V9.88016C2.09332 10.6135 2.65999 11.5735 3.29999 11.9335L6.85999 13.9135C7.46666 14.2535 8.53332 14.2535 9.13999 13.9135L12.7 11.9335C13.34 11.5735 13.9067 10.6202 13.9067 9.88016V6.1135C13.9067 5.38016 13.34 4.42016 12.7 4.06016L9.13999 2.08016C8.83332 1.92016 8.41999 1.8335 7.99999 1.8335Z" fill="#BDBDBD"/>
</svg>
