<svg width="64" height="64" viewBox="0 0 64 64" fill="none" xmlns="http://www.w3.org/2000/svg">
<path d="M32 34.0794C31.792 34.0794 31.584 34.0314 31.392 33.9194L17.264 25.7434C16.704 25.4074 16.496 24.6714 16.832 24.0954C17.168 23.5194 17.904 23.3274 18.48 23.6634L32 31.4874L45.44 23.7114C46.016 23.3754 46.752 23.5834 47.088 24.1434C47.424 24.7194 47.216 25.4554 46.656 25.7914L32.624 33.9194C32.416 34.0154 32.208 34.0794 32 34.0794Z" fill="#D7D7D7"/>
<path d="M32 48.5761C31.344 48.5761 30.8 48.0321 30.8 47.3761V32.8641C30.8 32.2081 31.344 31.6641 32 31.6641C32.656 31.6641 33.2 32.2081 33.2 32.8641V47.3761C33.2 48.0321 32.656 48.5761 32 48.5761Z" fill="#D7D7D7"/>
<path d="M32 49.1998C30.592 49.1998 29.2 48.8958 28.096 48.2878L19.552 43.5358C17.232 42.2558 15.424 39.1678 15.424 36.5118V27.4718C15.424 24.8158 17.232 21.7438 19.552 20.4478L28.096 15.7118C30.288 14.4958 33.712 14.4958 35.904 15.7118L44.448 20.4638C46.768 21.7438 48.576 24.8318 48.576 27.4878V36.5278C48.576 39.1838 46.768 42.2558 44.448 43.5518L35.904 48.2878C34.8 48.8958 33.408 49.1998 32 49.1998ZM32 17.1998C30.992 17.1998 30 17.4078 29.264 17.8078L20.72 22.5598C19.184 23.4078 17.824 25.7118 17.824 27.4718V36.5118C17.824 38.2718 19.184 40.5758 20.72 41.4398L29.264 46.1918C30.72 47.0078 33.28 47.0078 34.736 46.1918L43.28 41.4398C44.816 40.5758 46.176 38.2878 46.176 36.5118V27.4718C46.176 25.7118 44.816 23.4078 43.28 22.5438L34.736 17.7918C34 17.4078 33.008 17.1998 32 17.1998Z" fill="#D7D7D7"/>
</svg>
