<svg width="64" height="64" viewBox="0 0 64 64" fill="none" xmlns="http://www.w3.org/2000/svg">
<path d="M27.4554 31.3918C27.4074 31.3918 27.3754 31.3918 27.3274 31.3918C27.2474 31.3758 27.1354 31.3758 27.0394 31.3918C22.3994 31.2478 18.8954 27.5998 18.8954 23.1038C18.8954 18.5278 22.6234 14.7998 27.1994 14.7998C31.7754 14.7998 35.5034 18.5278 35.5034 23.1038C35.4874 27.5998 31.9674 31.2478 27.5034 31.3918C27.4874 31.3918 27.4714 31.3918 27.4554 31.3918ZM27.1994 17.1998C23.9514 17.1998 21.2954 19.8558 21.2954 23.1038C21.2954 26.3038 23.7914 28.8798 26.9754 28.9918C27.0714 28.9758 27.2794 28.9758 27.4874 28.9918C30.6234 28.8478 33.0874 26.2718 33.1034 23.1038C33.1034 19.8558 30.4474 17.1998 27.1994 17.1998Z" fill="#D7D7D7"/>
<path d="M39.2634 31.6C39.2154 31.6 39.1674 31.6 39.1194 31.584C38.4634 31.648 37.7914 31.184 37.7274 30.528C37.6634 29.872 38.0634 29.28 38.7194 29.2C38.9114 29.184 39.1194 29.184 39.2954 29.184C41.6314 29.056 43.4554 27.136 43.4554 24.784C43.4554 22.352 41.4874 20.384 39.0554 20.384C38.3994 20.4 37.8554 19.856 37.8554 19.2C37.8554 18.544 38.3994 18 39.0554 18C42.7994 18 45.8554 21.056 45.8554 24.8C45.8554 28.48 42.9754 31.456 39.3114 31.6C39.2954 31.6 39.2794 31.6 39.2634 31.6Z" fill="#D7D7D7"/>
<path d="M27.4714 48.8802C24.3354 48.8802 21.1834 48.0802 18.7994 46.4802C16.5754 45.0082 15.3594 42.9922 15.3594 40.8002C15.3594 38.6082 16.5754 36.5762 18.7994 35.0882C23.5994 31.9042 31.3754 31.9042 36.1434 35.0882C38.3514 36.5602 39.5834 38.5762 39.5834 40.7682C39.5834 42.9602 38.3674 44.9922 36.1434 46.4802C33.7434 48.0802 30.6074 48.8802 27.4714 48.8802ZM20.1274 37.1042C18.5914 38.1282 17.7594 39.4402 17.7594 40.8162C17.7594 42.1762 18.6074 43.4882 20.1274 44.4962C24.1114 47.1682 30.8314 47.1682 34.8154 44.4962C36.3514 43.4722 37.1834 42.1602 37.1834 40.7842C37.1834 39.4242 36.3354 38.1122 34.8154 37.1042C30.8314 34.4482 24.1114 34.4482 20.1274 37.1042Z" fill="#D7D7D7"/>
<path d="M42.1434 45.9998C41.5834 45.9998 41.0874 45.6158 40.9754 45.0398C40.8474 44.3838 41.2634 43.7598 41.9034 43.6158C42.9114 43.4078 43.8394 43.0078 44.5594 42.4478C45.4714 41.7598 45.9674 40.8958 45.9674 39.9838C45.9674 39.0718 45.4714 38.2078 44.5754 37.5358C43.8714 36.9918 42.9914 36.6078 41.9514 36.3678C41.3114 36.2238 40.8954 35.5838 41.0394 34.9278C41.1834 34.2878 41.8234 33.8718 42.4794 34.0158C43.8554 34.3198 45.0554 34.8638 46.0314 35.6158C47.5194 36.7358 48.3674 38.3198 48.3674 39.9838C48.3674 41.6478 47.5034 43.2318 46.0154 44.3678C45.0234 45.1358 43.7754 45.6958 42.3994 45.9678C42.3034 45.9998 42.2234 45.9998 42.1434 45.9998Z" fill="#D7D7D7"/>
</svg>
