<svg width="64" height="64" viewBox="0 0 64 64" fill="none" xmlns="http://www.w3.org/2000/svg">
<path d="M42.576 23.4879C41.92 23.4879 41.376 22.9439 41.376 22.2879V19.8719C41.376 18.9119 40.592 18.1119 39.616 18.1119H18.928C17.968 18.1119 17.168 18.8959 17.168 19.8719V22.2879C17.168 22.9439 16.624 23.4879 15.968 23.4879C15.312 23.4879 14.784 22.9439 14.784 22.2879V19.8719C14.784 17.5839 16.656 15.7119 18.944 15.7119H39.616C41.904 15.7119 43.776 17.5679 43.776 19.8719V22.2879C43.776 22.9439 43.232 23.4879 42.576 23.4879Z" fill="#D7D7D7"/>
<path d="M29.28 42.9601C28.624 42.9601 28.08 42.4161 28.08 41.7601V18.1121C28.08 17.4561 28.624 16.9121 29.28 16.9121C29.936 16.9121 30.48 17.4561 30.48 18.1121V41.7601C30.48 42.4321 29.936 42.9601 29.28 42.9601Z" fill="#D7D7D7"/>
<path d="M32.768 42.9596H23.84C23.184 42.9596 22.64 42.4156 22.64 41.7596C22.64 41.1036 23.184 40.5596 23.84 40.5596H32.768C33.424 40.5596 33.968 41.1036 33.968 41.7596C33.968 42.4156 33.424 42.9596 32.768 42.9596Z" fill="#D7D7D7"/>
<path d="M48.016 33.9199C47.36 33.9199 46.816 33.3759 46.816 32.7199V31.4399C46.816 30.9439 46.4 30.5279 45.904 30.5279H34.688C34.032 30.5279 33.488 29.9839 33.488 29.3279C33.488 28.6719 34.032 28.1279 34.688 28.1279H45.904C47.728 28.1279 49.216 29.6159 49.216 31.4399V32.7199C49.216 33.3919 48.688 33.9199 48.016 33.9199Z" fill="#D7D7D7"/>
<path d="M38.528 48.2882C37.872 48.2882 37.328 47.7442 37.328 47.0882V30.1922C37.328 29.5362 37.872 28.9922 38.528 28.9922C39.184 28.9922 39.728 29.5362 39.728 30.1922V47.0882C39.728 47.7442 39.184 48.2882 38.528 48.2882Z" fill="#D7D7D7"/>
<path d="M41.952 48.2877H35.104C34.448 48.2877 33.904 47.7437 33.904 47.0877C33.904 46.4317 34.448 45.8877 35.104 45.8877H41.952C42.608 45.8877 43.152 46.4317 43.152 47.0877C43.152 47.7437 42.608 48.2877 41.952 48.2877Z" fill="#D7D7D7"/>
</svg>
