<svg width="64" height="64" viewBox="0 0 64 64" fill="none" xmlns="http://www.w3.org/2000/svg">
<path d="M36.464 43.8716C36.288 43.8716 36.096 43.8237 35.936 43.7437C35.344 43.4397 35.104 42.7196 35.392 42.1276L38.816 35.2956C39.024 34.8956 39.44 34.6396 39.888 34.6396C40.336 34.6396 40.752 34.8956 40.96 35.3116L44.384 42.1437C44.688 42.7357 44.448 43.4556 43.84 43.7596C43.248 44.0636 42.528 43.8236 42.224 43.2156L39.888 38.5276L37.552 43.2156C37.328 43.6316 36.896 43.8716 36.464 43.8716Z" fill="#D7D7D7"/>
<path d="M42.6882 42.6559H37.0563C36.4003 42.6559 35.8563 42.1119 35.8563 41.4559C35.8563 40.7999 36.4003 40.2559 37.0563 40.2559H42.6882C43.3442 40.2559 43.8882 40.7999 43.8882 41.4559C43.8882 42.1119 43.3602 42.6559 42.6882 42.6559Z" fill="#D7D7D7"/>
<path d="M39.8718 49.1999C34.7358 49.1999 30.5438 45.0239 30.5438 39.8719C30.5438 34.7199 34.7198 30.5439 39.8718 30.5439C45.0078 30.5439 49.1998 34.7199 49.1998 39.8719C49.1998 45.0239 45.0238 49.1999 39.8718 49.1999ZM39.8718 32.9599C36.0478 32.9599 32.9438 36.0639 32.9438 39.8879C32.9438 43.7119 36.0478 46.8159 39.8718 46.8159C43.6798 46.8159 46.7998 43.7119 46.7998 39.8879C46.7998 36.0639 43.6958 32.9599 39.8718 32.9599Z" fill="#D7D7D7"/>
<path d="M20.576 33.1202C18.8 33.1202 17.392 32.6242 16.4 31.6642C15.344 30.6402 14.8 29.0882 14.8 27.0882V20.8162C14.8 16.9282 16.944 14.7842 20.832 14.7842H27.104C29.104 14.7842 30.64 15.3122 31.68 16.3842C32.688 17.4242 33.184 18.9282 33.136 20.8482V27.0882C33.184 29.0402 32.688 30.5762 31.648 31.6162C30.608 32.6562 29.072 33.1362 27.088 33.1042H20.848C20.736 33.1202 20.656 33.1202 20.576 33.1202ZM20.832 17.2002C18.256 17.2002 17.2 18.2562 17.2 20.8322V27.1042C17.2 28.4322 17.488 29.3921 18.064 29.9521C18.624 30.4961 19.52 30.7362 20.784 30.7202H27.088C28.432 30.7522 29.36 30.4802 29.92 29.9202C30.48 29.3602 30.736 28.4162 30.704 27.1202V20.8162C30.736 19.5362 30.48 18.6242 29.936 18.0642C29.376 17.4882 28.416 17.2002 27.088 17.2002H20.832Z" fill="#D7D7D7"/>
<path d="M27.1999 23.36H20.7039C20.0479 23.36 19.5039 22.816 19.5039 22.16C19.5039 21.504 20.0479 20.96 20.7039 20.96H27.1999C27.8559 20.96 28.3999 21.504 28.3999 22.16C28.3999 22.816 27.8719 23.36 27.1999 23.36Z" fill="#D7D7D7"/>
<path d="M23.9679 23.3601C23.3119 23.3601 22.7679 22.8161 22.7679 22.1601V21.0721C22.7679 20.4161 23.3119 19.8721 23.9679 19.8721C24.6239 19.8721 25.1679 20.4161 25.1679 21.0721V22.1601C25.1679 22.8161 24.6239 23.3601 23.9679 23.3601Z" fill="#D7D7D7"/>
<path d="M20.7039 28.4153C20.0479 28.4153 19.5039 27.8713 19.5039 27.2153C19.5039 26.5593 20.0479 26.0153 20.7039 26.0153C22.7359 26.0153 24.3839 24.2874 24.3839 22.1434C24.3839 21.4874 24.9279 20.9434 25.5839 20.9434C26.2399 20.9434 26.7839 21.4874 26.7839 22.1434C26.7839 25.5994 24.0639 28.4153 20.7039 28.4153Z" fill="#D7D7D7"/>
<path d="M27.2159 28.4155C25.7279 28.4155 24.3039 27.6635 23.2959 26.3355C22.8959 25.8075 23.0079 25.0555 23.5359 24.6555C24.0639 24.2555 24.8159 24.3675 25.2159 24.8955C25.7599 25.6315 26.4799 26.0315 27.2159 26.0315C27.8719 26.0315 28.4159 26.5755 28.4159 27.2315C28.4159 27.8875 27.8719 28.4155 27.2159 28.4155Z" fill="#D7D7D7"/>
<path d="M27.2 49.1996C20.368 49.1996 14.8 43.6316 14.8 36.7996C14.8 36.1436 15.344 35.5996 16 35.5996C16.656 35.5996 17.2 36.1436 17.2 36.7996C17.2 41.5356 20.496 45.5037 24.928 46.5437L24.496 45.8236C24.16 45.2476 24.336 44.5116 24.912 44.1756C25.472 43.8396 26.224 44.0156 26.56 44.5916L28.24 47.3916C28.464 47.7596 28.464 48.2236 28.256 48.5916C28.032 48.9596 27.632 49.1996 27.2 49.1996Z" fill="#D7D7D7"/>
<path d="M47.9999 28.3998C47.3439 28.3998 46.7999 27.8558 46.7999 27.1998C46.7999 22.4638 43.5039 18.4958 39.0719 17.4558L39.5039 18.1758C39.8399 18.7518 39.6639 19.4878 39.0879 19.8238C38.5279 20.1598 37.7759 19.9838 37.4399 19.4078L35.7599 16.6078C35.5359 16.2398 35.5359 15.7758 35.7439 15.4078C35.9519 15.0238 36.3519 14.7998 36.7839 14.7998C43.6159 14.7998 49.1839 20.3678 49.1839 27.1998C49.1999 27.8558 48.6559 28.3998 47.9999 28.3998Z" fill="#D7D7D7"/>
</svg>
