<svg width="64" height="64" viewBox="0 0 64 64" fill="none" xmlns="http://www.w3.org/2000/svg">
<path d="M36.8 49.1998H27.2C18.512 49.1998 14.8 45.4878 14.8 36.7998V27.1998C14.8 18.5118 18.512 14.7998 27.2 14.7998H30.4C31.056 14.7998 31.6 15.3438 31.6 15.9998C31.6 16.6558 31.056 17.1998 30.4 17.1998H27.2C19.824 17.1998 17.2 19.8238 17.2 27.1998V36.7998C17.2 44.1758 19.824 46.7998 27.2 46.7998H36.8C44.176 46.7998 46.8 44.1758 46.8 36.7998V33.5998C46.8 32.9438 47.344 32.3998 48 32.3998C48.656 32.3998 49.2 32.9438 49.2 33.5998V36.7998C49.2 45.4878 45.488 49.1998 36.8 49.1998Z" fill="#D7D7D7"/>
<path d="M26.4 41.1035C25.424 41.1035 24.528 40.7515 23.872 40.1115C23.088 39.3275 22.752 38.1915 22.928 36.9915L23.616 32.1755C23.744 31.2475 24.352 30.0475 25.008 29.3915L37.616 16.7835C40.8 13.5995 44.032 13.5995 47.216 16.7835C48.96 18.5275 49.744 20.3035 49.584 22.0795C49.44 23.5195 48.672 24.9275 47.216 26.3675L34.608 38.9755C33.952 39.6315 32.752 40.2395 31.824 40.3675L27.008 41.0555C26.8 41.1035 26.592 41.1035 26.4 41.1035ZM39.312 18.4795L26.704 31.0875C26.4 31.3915 26.048 32.0955 25.984 32.5115L25.296 37.3275C25.232 37.7915 25.328 38.1755 25.568 38.4155C25.808 38.6555 26.192 38.7515 26.656 38.6875L31.472 37.9995C31.888 37.9355 32.608 37.5835 32.896 37.2795L45.504 24.6715C46.544 23.6315 47.088 22.7035 47.168 21.8395C47.264 20.7995 46.72 19.6955 45.504 18.4635C42.944 15.9035 41.184 16.6235 39.312 18.4795Z" fill="#D7D7D7"/>
<path d="M44.56 28.5278C44.448 28.5278 44.336 28.5118 44.24 28.4798C40.032 27.2958 36.688 23.9518 35.504 19.7438C35.328 19.1038 35.696 18.4478 36.336 18.2558C36.976 18.0798 37.632 18.4478 37.808 19.0878C38.768 22.4958 41.472 25.1998 44.88 26.1598C45.52 26.3358 45.888 27.0078 45.712 27.6478C45.568 28.1918 45.088 28.5278 44.56 28.5278Z" fill="#D7D7D7"/>
</svg>
