<svg width="18" height="18" viewBox="0 0 18 18" fill="none" xmlns="http://www.w3.org/2000/svg">
<path d="M9 15.9375H5.25C2.5125 15.9375 0.9375 14.3625 0.9375 11.625V6.375C0.9375 3.6375 2.5125 2.0625 5.25 2.0625H12.75C15.4875 2.0625 17.0625 3.6375 17.0625 6.375V8.625C17.0625 8.9325 16.8075 9.1875 16.5 9.1875C16.1925 9.1875 15.9375 8.9325 15.9375 8.625V6.375C15.9375 4.23 14.895 3.1875 12.75 3.1875H5.25C3.105 3.1875 2.0625 4.23 2.0625 6.375V11.625C2.0625 13.77 3.105 14.8125 5.25 14.8125H9C9.3075 14.8125 9.5625 15.0675 9.5625 15.375C9.5625 15.6825 9.3075 15.9375 9 15.9375Z" fill="#5A5A5A"/>
<path d="M8.99983 9.65247C8.36983 9.65247 7.73234 9.45747 7.24484 9.05997L4.89733 7.18497C4.65733 6.98997 4.61234 6.63748 4.80734 6.39748C5.00234 6.15748 5.35483 6.11998 5.59483 6.30748L7.94233 8.18248C8.51233 8.63998 9.47983 8.63998 10.0498 8.18248L12.3973 6.30748C12.6373 6.11248 12.9898 6.14998 13.1848 6.39748C13.3798 6.63748 13.3423 6.99747 13.0948 7.18497L10.7473 9.05997C10.2673 9.45747 9.62983 9.65247 8.99983 9.65247Z" fill="#5A5A5A"/>
<path d="M11.865 16.3352C11.58 16.3352 11.31 16.2302 11.115 16.0352C10.8825 15.8027 10.7775 15.4652 10.83 15.1127L10.9725 14.1002C11.01 13.8377 11.1675 13.5227 11.355 13.3352L14.01 10.6802C14.37 10.3202 14.7225 10.1327 15.105 10.0952C15.57 10.0502 16.035 10.2452 16.47 10.6802C16.905 11.1152 17.1 11.5727 17.055 12.0452C17.0175 12.4202 16.8225 12.7802 16.47 13.1402L13.815 15.7952C13.6275 15.9827 13.3125 16.1402 13.05 16.1777L12.0375 16.3202C11.9775 16.3277 11.925 16.3352 11.865 16.3352ZM15.2325 11.2127C15.225 11.2127 15.2175 11.2127 15.21 11.2127C15.105 11.2202 14.9625 11.3177 14.805 11.4752L12.15 14.1302C12.1275 14.1527 12.09 14.2277 12.09 14.2577L11.955 15.1952L12.8925 15.0602C12.9225 15.0527 12.9975 15.0152 13.02 14.9927L15.675 12.3377C15.8325 12.1727 15.93 12.0377 15.9375 11.9327C15.9525 11.7827 15.8025 11.6027 15.675 11.4752C15.555 11.3552 15.3825 11.2127 15.2325 11.2127Z" fill="#5A5A5A"/>
<path d="M15.6901 13.6872C15.6376 13.6872 15.5851 13.6797 15.5401 13.6647C14.5501 13.3872 13.7626 12.5997 13.4851 11.6097C13.4026 11.3097 13.5751 11.0022 13.8751 10.9122C14.1751 10.8297 14.4826 11.0022 14.5651 11.3022C14.7376 11.9172 15.2251 12.4047 15.8401 12.5772C16.1401 12.6597 16.3126 12.9747 16.2301 13.2747C16.1626 13.5222 15.9376 13.6872 15.6901 13.6872Z" fill="#5A5A5A"/>
</svg>
