<svg width="19" height="18" viewBox="0 0 19 18" fill="none" xmlns="http://www.w3.org/2000/svg">
<path d="M9.50007 0C4.53091 0 0.501465 4.1261 0.501465 9.21607C0.501465 13.288 3.07983 16.7426 6.65527 17.9612C7.10498 18.0465 7.27012 17.7612 7.27012 17.5178C7.27012 17.2981 7.26168 16.5721 7.25789 15.8021C4.75447 16.3595 4.22623 14.7146 4.22623 14.7146C3.81686 13.6494 3.22704 13.3661 3.22704 13.3661C2.41063 12.7941 3.28862 12.8059 3.28862 12.8059C4.1922 12.8709 4.668 13.7556 4.668 13.7556C5.47062 15.1645 6.77316 14.7572 7.28664 14.5217C7.36742 13.9261 7.60061 13.5194 7.85798 13.2893C5.85925 13.0563 3.75816 12.2661 3.75816 8.73475C3.75816 7.72855 4.10967 6.90638 4.68529 6.26098C4.59186 6.02885 4.28387 5.09155 4.77246 3.82205C4.77246 3.82205 5.52813 3.57437 7.24777 4.76676C7.96554 4.56257 8.73534 4.46018 9.50007 4.45666C10.2648 4.46018 11.0352 4.5625 11.7543 4.76676C13.4719 3.57444 14.2265 3.82212 14.2265 3.82212C14.7163 5.09148 14.4081 6.02892 14.3147 6.26098C14.8917 6.90638 15.2408 7.72855 15.2408 8.73475C15.2408 12.2745 13.1357 13.0539 11.1319 13.2821C11.4546 13.568 11.7423 14.1289 11.7423 14.9887C11.7423 16.2218 11.7318 17.2143 11.7318 17.5178C11.7318 17.7631 11.8938 18.0505 12.3499 17.9599C15.9234 16.74 18.4985 13.2867 18.4985 9.21614C18.4985 4.1261 14.4697 0 9.50007 0ZM3.87177 13.1285C3.85194 13.1743 3.78157 13.188 3.71753 13.1566C3.65222 13.1265 3.61559 13.0641 3.63668 13.0182C3.65608 12.971 3.7266 12.9578 3.79169 12.9894C3.85707 13.0195 3.89433 13.0825 3.87177 13.1285ZM4.31438 13.533C4.2715 13.5737 4.18756 13.5548 4.13062 13.4904C4.07177 13.4262 4.06074 13.3402 4.10425 13.2989C4.14854 13.2582 4.22988 13.2772 4.28886 13.3415C4.34778 13.4065 4.35916 13.4918 4.31438 13.533ZM4.61808 14.0505C4.5629 14.0898 4.47277 14.053 4.41702 13.971C4.36191 13.8891 4.36191 13.7908 4.41822 13.7514C4.47411 13.712 4.5629 13.7475 4.61935 13.8288C4.67432 13.9121 4.67432 14.0104 4.61801 14.0506M5.13149 14.65C5.08221 14.7057 4.97711 14.6907 4.9002 14.6147C4.82154 14.5404 4.79967 14.435 4.84916 14.3793C4.89908 14.3234 5.00474 14.3391 5.08221 14.4145C5.16025 14.4887 5.18415 14.5949 5.13149 14.65ZM5.79528 14.8523C5.77348 14.9245 5.67225 14.9574 5.57038 14.9267C5.46859 14.8951 5.40201 14.8105 5.42254 14.7376C5.4437 14.6649 5.54535 14.6308 5.64799 14.6636C5.74965 14.695 5.81644 14.7789 5.79528 14.8524M6.55059 14.9383C6.55312 15.0142 6.46672 15.0772 6.35972 15.0787C6.25216 15.0811 6.16506 15.0196 6.16386 14.9448C6.16386 14.8681 6.24837 14.8056 6.356 14.8038C6.46299 14.8016 6.55059 14.8627 6.55059 14.9383ZM7.29262 14.9091C7.30541 14.9833 7.2311 15.0594 7.12481 15.0798C7.02041 15.0993 6.92368 15.0535 6.91039 14.98C6.89746 14.9039 6.97317 14.8278 7.07743 14.8081C7.18386 14.7892 7.27905 14.8337 7.29262 14.9091Z" fill="#F7F7F7"/>
</svg>
