<svg width="40" height="40" viewBox="0 0 40 40" fill="none" xmlns="http://www.w3.org/2000/svg">
<path d="M16 24.75H13.43C10.74 24.75 9.25 23.27 9.25 20.57V13.43C9.25 10.74 10.73 9.25 13.43 9.25H18C20.69 9.25 22.18 10.73 22.18 13.43C22.18 13.84 21.84 14.18 21.43 14.18C21.02 14.18 20.68 13.84 20.68 13.43C20.68 11.55 19.88 10.75 18 10.75H13.43C11.55 10.75 10.75 11.55 10.75 13.43V20.57C10.75 22.45 11.55 23.25 13.43 23.25H16C16.41 23.25 16.75 23.59 16.75 24C16.75 24.41 16.41 24.75 16 24.75Z" fill="#D7D7D7"/>
<path d="M26.5701 30.75H22.0001C19.3101 30.75 17.8201 29.27 17.8201 26.57V19.43C17.8201 16.74 19.3001 15.25 22.0001 15.25H26.5701C29.2601 15.25 30.7501 16.73 30.7501 19.43V26.57C30.7501 29.27 29.2701 30.75 26.5701 30.75ZM22.0001 16.75C20.1201 16.75 19.3201 17.55 19.3201 19.43V26.57C19.3201 28.45 20.1201 29.25 22.0001 29.25H26.5701C28.4501 29.25 29.2501 28.45 29.2501 26.57V19.43C29.2501 17.55 28.4501 16.75 26.5701 16.75H22.0001Z" fill="#D7D7D7"/>
<path d="M26.1299 23.75H22.8799C22.4699 23.75 22.1299 23.41 22.1299 23C22.1299 22.59 22.4699 22.25 22.8799 22.25H26.1299C26.5399 22.25 26.8799 22.59 26.8799 23C26.8799 23.41 26.5399 23.75 26.1299 23.75Z" fill="#D7D7D7"/>
<path d="M24.5 25.3799C24.09 25.3799 23.75 25.0399 23.75 24.6299V21.3799C23.75 20.9699 24.09 20.6299 24.5 20.6299C24.91 20.6299 25.25 20.9699 25.25 21.3799V24.6299C25.25 25.0399 24.91 25.3799 24.5 25.3799Z" fill="#D7D7D7"/>
</svg>
