<svg width="19" height="18" viewBox="0 0 19 18" fill="none" xmlns="http://www.w3.org/2000/svg">
<g clip-path="url(#clip0_836_2010)">
<rect x="0.5" width="18" height="18" rx="4" fill="#5A5A5A"/>
<path d="M9.50002 12.6C8.97502 12.6 8.45001 12.3975 8.05251 12L3.16251 7.10998C2.94501 6.89248 2.94501 6.53248 3.16251 6.31498C3.38001 6.09748 3.74001 6.09748 3.95751 6.31498L8.84751 11.205C9.20751 11.565 9.79251 11.565 10.1525 11.205L15.0425 6.31498C15.26 6.09748 15.62 6.09748 15.8375 6.31498C16.055 6.53248 16.055 6.89248 15.8375 7.10998L10.9475 12C10.55 12.3975 10.025 12.6 9.50002 12.6Z" fill="#D7D7D7" stroke="#D7D7D7" stroke-width="0.2"/>
</g>
<defs>
<clipPath id="clip0_836_2010">
<rect x="0.5" width="18" height="18" rx="4" fill="white"/>
</clipPath>
</defs>
</svg>
