<svg width="24" height="24" viewBox="0 0 24 24" fill="none" xmlns="http://www.w3.org/2000/svg">
<path d="M18.2995 8.09968L7.09962 19.2996C6.71696 19.6823 6.08229 19.6823 5.69963 19.2996C5.31697 18.9169 5.31697 18.2823 5.69963 17.8996L16.8996 6.69969C17.2822 6.31702 17.9169 6.31702 18.2995 6.69969C18.6822 7.08235 18.6822 7.71701 18.2995 8.09968Z" fill="#5A5A5A"/>
<path d="M18.2995 19.3003C17.9169 19.683 17.2822 19.683 16.8996 19.3003L5.69963 8.10039C5.31697 7.71772 5.31697 7.08306 5.69963 6.7004C6.08229 6.31773 6.71696 6.31773 7.09962 6.7004L18.2995 17.9003C18.6822 18.283 18.6822 18.9176 18.2995 19.3003Z" fill="#5A5A5A"/>
</svg>
