<svg width="67" height="28" viewBox="0 0 67 28" fill="none" xmlns="http://www.w3.org/2000/svg">
<rect x="0.5" width="66" height="28" rx="6" fill="#303030"/>
<path d="M13.21 19.1523C10.6392 19.1523 9.01416 17.3369 9.01416 14.417C9.01416 11.5161 10.6519 9.68799 13.21 9.68799C15.2856 9.68799 16.8535 10.9639 17.0947 12.8745H15.6855C15.4316 11.7002 14.4541 10.9321 13.21 10.9321C11.5469 10.9321 10.4678 12.2969 10.4678 14.417C10.4678 16.5562 11.5342 17.9082 13.2163 17.9082C14.4922 17.9082 15.3999 17.2544 15.6855 16.1499H17.1011C16.752 18.0415 15.3174 19.1523 13.21 19.1523ZM18.2586 19V9.84033H19.6297V19H18.2586ZM23.8215 13.3062C22.863 13.3062 22.1901 14.0361 22.1203 15.0454H25.4592C25.4274 14.0234 24.78 13.3062 23.8215 13.3062ZM25.4528 17.0386H26.7541C26.5637 18.2573 25.4084 19.127 23.8786 19.127C21.9172 19.127 20.7302 17.8003 20.7302 15.6929C20.7302 13.5981 21.9362 12.2017 23.8215 12.2017C25.675 12.2017 26.8303 13.5093 26.8303 15.5342V16.0039H22.114V16.0864C22.114 17.248 22.8122 18.0161 23.9104 18.0161C24.6911 18.0161 25.2688 17.6226 25.4528 17.0386ZM30.2222 18.0288C31.1807 18.0288 31.9297 17.3687 31.9297 16.499V15.9722L30.2857 16.0737C29.4668 16.1309 29.0035 16.4927 29.0035 17.064C29.0035 17.6479 29.4859 18.0288 30.2222 18.0288ZM29.8414 19.1143C28.5337 19.1143 27.6197 18.3018 27.6197 17.1021C27.6197 15.9341 28.5147 15.2168 30.1016 15.1279L31.9297 15.02V14.5059C31.9297 13.7632 31.4283 13.3188 30.5904 13.3188C29.7969 13.3188 29.3018 13.6997 29.1812 14.2964H27.8863C27.9625 13.0903 28.9908 12.2017 30.6412 12.2017C32.2598 12.2017 33.2945 13.0586 33.2945 14.3979V19H31.9805V17.9019H31.9488C31.5616 18.6445 30.7173 19.1143 29.8414 19.1143ZM34.6171 19V12.3223H35.9247V13.4585H35.9564C36.1786 12.6777 36.7753 12.2144 37.5624 12.2144C37.7592 12.2144 37.9306 12.2461 38.0321 12.2651V13.541C37.9242 13.4966 37.683 13.4648 37.4164 13.4648C36.5341 13.4648 35.9882 14.0552 35.9882 15.001V19H34.6171Z" fill="#BDBDBD"/>
<path d="M53.758 10.6083L45.3581 19.0083C45.3459 19.0205 45.3264 19.0302 45.2997 19.0302C45.273 19.0302 45.2536 19.0205 45.2414 19.0083C45.2292 18.9961 45.2194 18.9766 45.2194 18.95C45.2194 18.9233 45.2292 18.9038 45.2414 18.8916L53.6413 10.4917C53.6535 10.4795 53.673 10.4697 53.6997 10.4697C53.7263 10.4697 53.7458 10.4795 53.758 10.4917C53.7702 10.5039 53.7799 10.5233 53.7799 10.55C53.7799 10.5767 53.7702 10.5961 53.758 10.6083Z" fill="#BDBDBD" stroke="#BDBDBD" stroke-width="1.31992"/>
<path d="M54.2247 19.475C53.9377 19.762 53.4617 19.762 53.1747 19.475L44.7747 11.075C44.4877 10.788 44.4877 10.3121 44.7747 10.0251C45.0617 9.73805 45.5377 9.73805 45.8247 10.0251L54.2247 18.425C54.5117 18.712 54.5117 19.188 54.2247 19.475Z" fill="#BDBDBD"/>
</svg>
