<svg width="24" height="24" viewBox="0 0 24 24" fill="none" xmlns="http://www.w3.org/2000/svg">
<path d="M9.00146 1.24999H15.0015C20.4315 1.24999 22.7515 3.56999 22.7515 9V15C22.7515 20.43 20.4315 22.75 15.0015 22.75H9.00146C3.57146 22.75 1.25146 20.43 1.25146 15V9C1.25146 3.56999 3.57146 1.24999 9.00146 1.24999ZM15.0015 21.25C19.6115 21.25 21.2515 19.61 21.2515 15V9C21.2515 4.38999 19.6115 2.74999 15.0015 2.74999H9.00146C4.39146 2.74999 2.75146 4.38999 2.75146 9V15C2.75146 19.61 4.39146 21.25 9.00146 21.25H15.0015Z" fill="#5A5A5A"/>
<path d="M15.0015 1.24999C15.4115 1.24999 15.7515 1.58999 15.7515 1.99999L15.7515 22C15.7515 22.41 15.4115 22.75 15.0015 22.75C14.5915 22.75 14.2515 22.41 14.2515 22L14.2515 1.99999C14.2515 1.58999 14.5915 1.24999 15.0015 1.24999Z" fill="#5A5A5A"/>
</svg>
