<svg width="67" height="28" viewBox="0 0 67 28" fill="none" xmlns="http://www.w3.org/2000/svg">
<rect x="0.5" width="66" height="28" rx="6" fill="#303030"/>
<path d="M13.21 19.1523C10.6392 19.1523 9.01416 17.3369 9.01416 14.417C9.01416 11.5161 10.6519 9.68799 13.21 9.68799C15.2856 9.68799 16.8535 10.9639 17.0947 12.8745H15.6855C15.4316 11.7002 14.4541 10.9321 13.21 10.9321C11.5469 10.9321 10.4678 12.2969 10.4678 14.417C10.4678 16.5562 11.5342 17.9082 13.2163 17.9082C14.4922 17.9082 15.3999 17.2544 15.6855 16.1499H17.1011C16.752 18.0415 15.3174 19.1523 13.21 19.1523ZM21.077 19.127C19.1664 19.127 17.9095 17.813 17.9095 15.6611C17.9095 13.5156 19.1727 12.2017 21.077 12.2017C22.9813 12.2017 24.2445 13.5156 24.2445 15.6611C24.2445 17.813 22.9876 19.127 21.077 19.127ZM21.077 17.9971C22.1561 17.9971 22.848 17.1465 22.848 15.6611C22.848 14.1821 22.1498 13.3315 21.077 13.3315C20.0042 13.3315 19.306 14.1821 19.306 15.6611C19.306 17.1465 20.0042 17.9971 21.077 17.9971ZM28.7727 12.2144C30.4675 12.2144 31.5847 13.5474 31.5847 15.6611C31.5847 17.7749 30.4738 19.1143 28.798 19.1143C27.8396 19.1143 27.0778 18.6445 26.697 17.9019H26.6652V21.209H25.2941V12.3223H26.6208V13.4712H26.6462C27.0397 12.7031 27.8078 12.2144 28.7727 12.2144ZM28.4108 17.9526C29.4963 17.9526 30.1755 17.064 30.1755 15.6611C30.1755 14.2646 29.4963 13.3696 28.4108 13.3696C27.3635 13.3696 26.6589 14.2837 26.6589 15.6611C26.6589 17.0513 27.3571 17.9526 28.4108 17.9526ZM33.1167 21.4883C33.0088 21.4883 32.6597 21.4756 32.5582 21.4565V20.3457C32.6597 20.3711 32.8882 20.3711 33.0025 20.3711C33.6436 20.3711 33.98 20.1045 34.1895 19.4189C34.1895 19.4062 34.3101 19.0127 34.3101 19.0063L31.898 12.3223H33.3834L35.0782 17.7559H35.0972L36.792 12.3223H38.2393L35.732 19.3491C35.1607 20.9678 34.5069 21.4883 33.1167 21.4883Z" fill="#BDBDBD"/>
<path d="M48.825 21.5625H45.675C44.2712 21.5625 43.3691 21.2488 42.8101 20.6899C42.2512 20.1309 41.9375 19.2288 41.9375 17.825V14.675C41.9375 13.2712 42.2512 12.3691 42.8101 11.8101C43.3691 11.2512 44.2712 10.9375 45.675 10.9375H48.825C50.2288 10.9375 51.1309 11.2512 51.6899 11.8101C52.2488 12.3691 52.5625 13.2712 52.5625 14.675V17.825C52.5625 19.2288 52.2488 20.1309 51.6899 20.6899C51.1309 21.2488 50.2288 21.5625 48.825 21.5625ZM45.675 11.0625C44.483 11.0625 43.5284 11.2582 42.8933 11.8933C42.2582 12.5284 42.0625 13.483 42.0625 14.675V17.825C42.0625 19.017 42.2582 19.9716 42.8933 20.6067C43.5284 21.2418 44.483 21.4375 45.675 21.4375H48.825C50.017 21.4375 50.9716 21.2418 51.6067 20.6067C52.2418 19.9716 52.4375 19.017 52.4375 17.825V14.675C52.4375 13.483 52.2418 12.5284 51.6067 11.8933C50.9716 11.2582 50.017 11.0625 48.825 11.0625H45.675Z" fill="#BDBDBD" stroke="#BDBDBD"/>
<path d="M53.325 17.5625H52.5C52.1925 17.5625 51.9375 17.3075 51.9375 17V14.675C51.9375 12.35 51.15 11.5625 48.825 11.5625H46.5C46.1925 11.5625 45.9375 11.3075 45.9375 11V10.175C45.9375 7.2425 47.2425 5.9375 50.175 5.9375H53.325C56.2575 5.9375 57.5625 7.2425 57.5625 10.175V13.325C57.5625 16.2575 56.2575 17.5625 53.325 17.5625ZM53.0625 16.4375H53.325C55.65 16.4375 56.4375 15.65 56.4375 13.325V10.175C56.4375 7.85 55.65 7.0625 53.325 7.0625H50.175C47.85 7.0625 47.0625 7.85 47.0625 10.175V10.4375H48.825C51.7575 10.4375 53.0625 11.7425 53.0625 14.675V16.4375Z" fill="#BDBDBD"/>
</svg>
