<svg width="40" height="40" viewBox="0 0 40 40" fill="none" xmlns="http://www.w3.org/2000/svg">
<path d="M29 30.75H17C16.59 30.75 16.25 30.41 16.25 30C16.25 29.59 16.59 29.25 17 29.25H29C29.41 29.25 29.75 29.59 29.75 30C29.75 30.41 29.41 30.75 29 30.75Z" fill="#D7D7D7"/>
<path d="M16.5401 30.71C15.5401 30.71 14.5902 30.32 13.8902 29.61L10.3802 26.1C8.92016 24.64 8.92016 22.26 10.3802 20.8L20.8101 10.37C22.2201 8.96 24.7001 8.96 26.1101 10.37L29.6201 13.88C31.0801 15.34 31.0801 17.72 29.6201 19.18L19.1902 29.61C18.4902 30.33 17.5501 30.71 16.5401 30.71ZM11.4402 25.05L14.9502 28.56C15.8002 29.41 17.2902 29.41 18.1302 28.56L28.5601 18.13C29.4401 17.25 29.4401 15.83 28.5601 14.95L25.0501 11.44C24.2101 10.6 22.7201 10.59 21.8701 11.44L11.4402 21.87C10.5602 22.74 10.5602 24.17 11.4402 25.05Z" fill="#D7D7D7"/>
<path d="M22.87 25.6303C22.68 25.6303 22.4901 25.5603 22.3401 25.4103L14.5901 17.6603C14.3001 17.3703 14.3001 16.8903 14.5901 16.6003C14.8801 16.3103 15.3601 16.3103 15.6501 16.6003L23.4001 24.3503C23.6901 24.6403 23.6901 25.1203 23.4001 25.4103C23.2501 25.5603 23.06 25.6303 22.87 25.6303Z" fill="#D7D7D7"/>
<path d="M11.52 26.4104C11.33 26.4104 11.14 26.3404 10.99 26.1904C10.7 25.9004 10.7 25.4204 10.99 25.1304L16.65 19.4704C16.94 19.1804 17.42 19.1804 17.71 19.4704C18 19.7604 18 20.2404 17.71 20.5304L12.05 26.1904C11.9 26.3404 11.71 26.4104 11.52 26.4104Z" fill="#D7D7D7"/>
<path d="M14.3398 29.2395C14.1498 29.2395 13.9598 29.1695 13.8098 29.0195C13.5198 28.7295 13.5198 28.2495 13.8098 27.9595L19.4698 22.2995C19.7598 22.0095 20.2398 22.0095 20.5298 22.2995C20.8198 22.5895 20.8198 23.0695 20.5298 23.3595L14.8698 29.0195C14.7298 29.1595 14.5398 29.2395 14.3398 29.2395Z" fill="#D7D7D7"/>
</svg>
