<svg width="40" height="40" viewBox="0 0 40 40" fill="none" xmlns="http://www.w3.org/2000/svg">
<path d="M23 30.75H17C11.57 30.75 9.25 28.43 9.25 23V17C9.25 11.57 11.57 9.25 17 9.25H23C28.43 9.25 30.75 11.57 30.75 17V23C30.75 28.43 28.43 30.75 23 30.75ZM17 10.75C12.39 10.75 10.75 12.39 10.75 17V23C10.75 27.61 12.39 29.25 17 29.25H23C27.61 29.25 29.25 27.61 29.25 23V17C29.25 12.39 27.61 10.75 23 10.75H17Z" fill="#D7D7D7"/>
<path d="M17 18.75C15.48 18.75 14.25 17.52 14.25 16C14.25 14.48 15.48 13.25 17 13.25C18.52 13.25 19.75 14.48 19.75 16C19.75 17.52 18.52 18.75 17 18.75ZM17 14.75C16.31 14.75 15.75 15.31 15.75 16C15.75 16.69 16.31 17.25 17 17.25C17.69 17.25 18.25 16.69 18.25 16C18.25 15.31 17.69 14.75 17 14.75Z" fill="#D7D7D7"/>
<path d="M10.67 27.6996C10.43 27.6996 10.19 27.5796 10.05 27.3696C9.82002 27.0296 9.91002 26.5596 10.26 26.3296L15.19 23.0196C16.27 22.2896 17.76 22.3796 18.74 23.2096L19.07 23.4996C19.57 23.9296 20.42 23.9296 20.91 23.4996L25.07 19.9296C26.13 19.0196 27.8 19.0196 28.87 19.9296L30.5 21.3296C30.81 21.5996 30.85 22.0696 30.58 22.3896C30.31 22.6996 29.84 22.7396 29.52 22.4696L27.89 21.0696C27.39 20.6396 26.54 20.6396 26.04 21.0696L21.88 24.6396C20.82 25.5496 19.15 25.5496 18.08 24.6396L17.75 24.3496C17.29 23.9596 16.53 23.9196 16.02 24.2696L11.09 27.5796C10.96 27.6596 10.81 27.6996 10.67 27.6996Z" fill="#D7D7D7"/>
</svg>
