<svg width="88" height="28" viewBox="0 0 88 28" fill="none" xmlns="http://www.w3.org/2000/svg">
<rect x="0.5" width="87" height="28" rx="6" fill="#303030"/>
<path d="M17.2344 15.1914C17.2344 17.6733 15.7681 19.1523 13.2861 19.1523C10.6646 19.1523 9.01416 17.3179 9.01416 14.3789C9.01416 11.4907 10.6582 9.68799 13.2671 9.68799C15.3047 9.68799 16.8472 10.894 17.1646 12.7222H15.7046C15.3618 11.5859 14.4668 10.9321 13.2734 10.9321C11.5215 10.9321 10.4678 12.2144 10.4678 14.3662C10.4678 16.5562 11.5532 17.9082 13.2988 17.9082C14.7842 17.9082 15.8125 16.9561 15.8315 15.5659V15.4072H13.4639V14.2583H17.2344V15.1914ZM21.242 13.3062C20.2835 13.3062 19.6107 14.0361 19.5409 15.0454H22.8797C22.848 14.0234 22.2005 13.3062 21.242 13.3062ZM22.8734 17.0386H24.1747C23.9842 18.2573 22.829 19.127 21.2992 19.127C19.3377 19.127 18.1507 17.8003 18.1507 15.6929C18.1507 13.5981 19.3568 12.2017 21.242 12.2017C23.0956 12.2017 24.2508 13.5093 24.2508 15.5342V16.0039H19.5345V16.0864C19.5345 17.248 20.2328 18.0161 21.3309 18.0161C22.1117 18.0161 22.6893 17.6226 22.8734 17.0386ZM25.3068 19V12.3223H26.6145V13.4395H26.6462C27.008 12.6777 27.7189 12.208 28.7473 12.208C30.2199 12.208 31.0642 13.1475 31.0642 14.6772V19H29.6867V14.9438C29.6867 13.9409 29.217 13.3887 28.2648 13.3887C27.3 13.3887 26.6779 14.0742 26.6779 15.1089V19H25.3068ZM35.1734 13.3062C34.2149 13.3062 33.542 14.0361 33.4722 15.0454H36.8111C36.7793 14.0234 36.1319 13.3062 35.1734 13.3062ZM36.8047 17.0386H38.106C37.9156 18.2573 36.7603 19.127 35.2305 19.127C33.2691 19.127 32.0821 17.8003 32.0821 15.6929C32.0821 13.5981 33.2881 12.2017 35.1734 12.2017C37.0269 12.2017 38.1822 13.5093 38.1822 15.5342V16.0039H33.4659V16.0864C33.4659 17.248 34.1641 18.0161 35.2623 18.0161C36.043 18.0161 36.6207 17.6226 36.8047 17.0386ZM39.2382 19V12.3223H40.5458V13.4585H40.5775C40.7997 12.6777 41.3964 12.2144 42.1835 12.2144C42.3803 12.2144 42.5517 12.2461 42.6532 12.2651V13.541C42.5453 13.4966 42.3041 13.4648 42.0375 13.4648C41.1552 13.4648 40.6093 14.0552 40.6093 15.001V19H39.2382ZM45.6897 18.0288C46.6482 18.0288 47.3972 17.3687 47.3972 16.499V15.9722L45.7532 16.0737C44.9343 16.1309 44.471 16.4927 44.471 17.064C44.471 17.6479 44.9534 18.0288 45.6897 18.0288ZM45.3088 19.1143C44.0012 19.1143 43.0872 18.3018 43.0872 17.1021C43.0872 15.9341 43.9822 15.2168 45.5691 15.1279L47.3972 15.02V14.5059C47.3972 13.7632 46.8958 13.3188 46.0579 13.3188C45.2644 13.3188 44.7693 13.6997 44.6487 14.2964H43.3538C43.4299 13.0903 44.4583 12.2017 46.1086 12.2017C47.7273 12.2017 48.762 13.0586 48.762 14.3979V19H47.448V17.9019H47.4163C47.0291 18.6445 46.1848 19.1143 45.3088 19.1143ZM50.1354 19V9.84033H51.5064V19H50.1354ZM55.2942 16.4482H56.6971C56.7986 17.356 57.681 17.9526 58.887 17.9526C60.0423 17.9526 60.8738 17.356 60.8738 16.5371C60.8738 15.8262 60.3724 15.4009 59.1854 15.1089L57.9983 14.8232C56.3162 14.417 55.5355 13.6299 55.5355 12.354C55.5355 10.7734 56.9129 9.68799 58.868 9.68799C60.804 9.68799 62.1307 10.7734 62.1751 12.354H60.7913C60.7088 11.4399 59.9534 10.8877 58.8489 10.8877C57.7444 10.8877 56.9891 11.4463 56.9891 12.2588C56.9891 12.9062 57.4715 13.2871 58.6522 13.5791L59.6614 13.8267C61.5403 14.271 62.3211 15.0264 62.3211 16.3657C62.3211 18.0796 60.9564 19.1523 58.7855 19.1523C56.7542 19.1523 55.3831 18.105 55.2942 16.4482ZM67.5475 19.1523C64.9069 19.1523 63.2565 17.3433 63.2565 14.4233C63.2565 11.5161 64.9069 9.68799 67.5475 9.68799C70.1818 9.68799 71.8385 11.5161 71.8385 14.4233C71.8385 16.1372 71.2672 17.4829 70.2453 18.2764L71.4386 19.9712H69.9533L69.1725 18.8794C68.6837 19.0635 68.1378 19.1523 67.5475 19.1523ZM67.5475 17.9082C67.8522 17.9082 68.1378 17.8638 68.4044 17.7812L67.3126 16.2388H68.7536L69.401 17.1147C70.0231 16.5371 70.3786 15.604 70.3786 14.4233C70.3786 12.2842 69.2868 10.9321 67.5475 10.9321C65.8083 10.9321 64.7101 12.2842 64.7101 14.4233C64.7101 16.5562 65.8083 17.9082 67.5475 17.9082ZM78.874 17.7686V19H73.1865V9.84033H74.6084V17.7686H78.874Z" fill="#BDBDBD"/>
</svg>
