<svg width="40" height="40" viewBox="0 0 40 40" fill="none" xmlns="http://www.w3.org/2000/svg">
<path d="M19.9998 30.7495C18.8298 30.7495 17.7398 30.2995 16.9198 29.4795L10.5298 23.0895C9.70975 22.2695 9.25977 21.1695 9.25977 20.0095C9.25977 18.8495 9.70975 17.7495 10.5298 16.9295L16.9198 10.5395C17.7398 9.71949 18.8398 9.26953 19.9998 9.26953C21.1598 9.26953 22.2597 9.71949 23.0797 10.5395L29.4698 16.9295C30.2898 17.7495 30.7397 18.8495 30.7397 20.0095C30.7397 21.1695 30.2898 22.2695 29.4698 23.0895L23.0797 29.4795C22.2597 30.2995 21.1698 30.7495 19.9998 30.7495ZM19.9998 10.7495C19.2298 10.7495 18.5098 11.0495 17.9798 11.5795L11.5898 17.9695C11.0498 18.5095 10.7598 19.2295 10.7598 19.9895C10.7598 20.7495 11.0598 21.4795 11.5898 22.0095L17.9798 28.3995C19.0498 29.4695 20.9497 29.4695 22.0197 28.3995L28.4098 22.0095C28.9498 21.4695 29.2397 20.7595 29.2397 19.9895C29.2397 19.2195 28.9398 18.4995 28.4098 17.9695L22.0197 11.5795C21.4897 11.0495 20.7698 10.7495 19.9998 10.7495Z" fill="#D7D7D7"/>
</svg>
