<svg width="155" height="48" viewBox="0 0 155 48" fill="none" xmlns="http://www.w3.org/2000/svg">
<g filter="url(#filter0_d_1059_62)">
<rect x="4" y="2" width="147" height="40" rx="8" fill="url(#paint0_linear_1059_62)"/>
<rect x="4.5" y="2.5" width="146" height="39" rx="7.5" stroke="#086F7E"/>
<path d="M30.9375 27.5H28.9922V16.2266H30.7422L36.3359 24.125H36.4062V16.2266H38.3438V27.5H36.6094L31.0078 19.5938H30.9375V27.5ZM43.6613 20.5547C43.1197 20.5547 42.6665 20.7422 42.302 21.1172C41.9426 21.487 41.7421 21.9635 41.7004 22.5469H45.5676C45.5468 21.9583 45.3619 21.4792 45.0129 21.1094C44.6639 20.7396 44.2134 20.5547 43.6613 20.5547ZM45.5754 25.0234H47.3957C47.2707 25.8099 46.8723 26.4479 46.2004 26.9375C45.5285 27.4219 44.7056 27.6641 43.7317 27.6641C42.4921 27.6641 41.5181 27.2839 40.8098 26.5234C40.1014 25.7578 39.7473 24.7135 39.7473 23.3906C39.7473 22.0781 40.0988 21.026 40.802 20.2344C41.5103 19.4427 42.4608 19.0469 43.6535 19.0469C44.8254 19.0469 45.7551 19.4245 46.4426 20.1797C47.1301 20.9297 47.4738 21.9349 47.4738 23.1953V23.8281H41.6848V23.9453C41.6848 24.612 41.8723 25.1484 42.2473 25.5547C42.6275 25.9609 43.1353 26.1641 43.7707 26.1641C44.2186 26.1641 44.604 26.0625 44.927 25.8594C45.2551 25.651 45.4712 25.3724 45.5754 25.0234ZM59.8852 19.2188L57.643 27.5H55.5961L53.9633 21.4453H53.9242L52.2992 27.5H50.268L48.0258 19.2188H49.9789L51.3774 25.5781H51.4164L53.0336 19.2188H54.9008L56.518 25.5781H56.5649L57.9633 19.2188H59.8852ZM68.5907 27.6328C67.9917 27.6328 67.4631 27.4974 67.0047 27.2266C66.5516 26.9557 66.2026 26.5755 65.9579 26.0859H65.9188V27.5H64.0125V16.2266H65.9579V20.6406H66.0047C66.2391 20.151 66.5829 19.7682 67.036 19.4922C67.4891 19.2161 68.0073 19.0781 68.5907 19.0781C69.6375 19.0781 70.4683 19.4635 71.0829 20.2344C71.6974 21 72.0047 22.0417 72.0047 23.3594C72.0047 24.6823 71.6974 25.7266 71.0829 26.4922C70.4735 27.2526 69.6427 27.6328 68.5907 27.6328ZM67.9891 20.6797C67.3849 20.6797 66.8927 20.9271 66.5125 21.4219C66.1375 21.9115 65.95 22.5573 65.95 23.3594C65.95 24.1667 66.1375 24.8151 66.5125 25.3047C66.8927 25.7943 67.3849 26.0391 67.9891 26.0391C68.6141 26.0391 69.1063 25.7995 69.4657 25.3203C69.8302 24.8359 70.0125 24.1823 70.0125 23.3594C70.0125 22.5365 69.8302 21.8854 69.4657 21.4062C69.1011 20.9219 68.6089 20.6797 67.9891 20.6797ZM79.8067 26.5156C79.0827 27.2812 78.1088 27.6641 76.8848 27.6641C75.6609 27.6641 74.6869 27.2812 73.9629 26.5156C73.239 25.7448 72.877 24.6927 72.877 23.3594C72.877 22.0312 73.2416 20.9818 73.9707 20.2109C74.6999 19.4349 75.6713 19.0469 76.8848 19.0469C78.1036 19.0469 79.0749 19.4349 79.7989 20.2109C80.528 20.9818 80.8926 22.0312 80.8926 23.3594C80.8926 24.6927 80.5306 25.7448 79.8067 26.5156ZM75.4004 25.3984C75.765 25.8828 76.2598 26.125 76.8848 26.125C77.5098 26.125 78.0046 25.8828 78.3692 25.3984C78.7338 24.9141 78.9161 24.2344 78.9161 23.3594C78.9161 22.4896 78.7338 21.8125 78.3692 21.3281C78.0046 20.8385 77.5098 20.5938 76.8848 20.5938C76.265 20.5938 75.7702 20.8385 75.4004 21.3281C75.0359 21.8125 74.8536 22.4896 74.8536 23.3594C74.8536 24.2344 75.0359 24.9141 75.4004 25.3984ZM85.1165 26.1641C85.6738 26.1641 86.1425 26 86.5227 25.6719C86.9081 25.3385 87.1008 24.9245 87.1008 24.4297V23.7969L85.1868 23.9141C84.718 23.9453 84.3534 24.0625 84.093 24.2656C83.8378 24.4635 83.7102 24.7266 83.7102 25.0547C83.7102 25.3932 83.8378 25.6641 84.093 25.8672C84.3534 26.0651 84.6946 26.1641 85.1165 26.1641ZM84.5305 27.6328C83.7232 27.6328 83.0592 27.401 82.5383 26.9375C82.0227 26.474 81.7649 25.8724 81.7649 25.1328C81.7649 24.3984 82.0357 23.8177 82.5774 23.3906C83.1243 22.9635 83.9029 22.7188 84.9133 22.6562L87.1008 22.5312V21.9375C87.1008 21.5052 86.9628 21.1693 86.6868 20.9297C86.4159 20.6901 86.0383 20.5703 85.554 20.5703C85.1008 20.5703 84.731 20.6719 84.4446 20.875C84.1581 21.0781 83.9837 21.3542 83.9212 21.7031H82.1165C82.1581 20.9167 82.4941 20.2786 83.1243 19.7891C83.7597 19.2943 84.5956 19.0469 85.6321 19.0469C86.6581 19.0469 87.4784 19.2969 88.093 19.7969C88.7128 20.2969 89.0227 20.9635 89.0227 21.7969V27.5H87.1477V26.1797H87.1087C86.8743 26.6224 86.5201 26.9766 86.0462 27.2422C85.5722 27.5026 85.067 27.6328 84.5305 27.6328ZM90.5434 27.5V19.2188H92.4106V20.6641H92.4497C92.5903 20.1589 92.8325 19.7682 93.1762 19.4922C93.5252 19.2161 93.9445 19.0781 94.4341 19.0781C94.6059 19.0781 94.8091 19.1042 95.0434 19.1562V20.9141C94.8507 20.8411 94.5877 20.8047 94.2544 20.8047C93.7023 20.8047 93.27 20.9714 92.9575 21.3047C92.645 21.638 92.4887 22.0964 92.4887 22.6797V27.5H90.5434ZM98.7751 27.6328C97.7282 27.6328 96.8923 27.2474 96.2673 26.4766C95.6475 25.7057 95.3376 24.6641 95.3376 23.3516C95.3376 22.0443 95.6475 21.0052 96.2673 20.2344C96.8923 19.4635 97.7282 19.0781 98.7751 19.0781C99.3584 19.0781 99.874 19.2161 100.322 19.4922C100.775 19.7682 101.114 20.1406 101.338 20.6094H101.384V16.2266H103.33V27.5H101.424V26.0859H101.392C101.163 26.5599 100.817 26.9375 100.353 27.2188C99.8949 27.4948 99.3688 27.6328 98.7751 27.6328ZM99.361 20.6797C98.736 20.6797 98.2412 20.9219 97.8766 21.4062C97.5121 21.8854 97.3298 22.5365 97.3298 23.3594C97.3298 24.1875 97.5095 24.8411 97.8688 25.3203C98.2334 25.7995 98.7308 26.0391 99.361 26.0391C99.9756 26.0391 100.468 25.7969 100.838 25.3125C101.207 24.8281 101.392 24.1771 101.392 23.3594C101.392 22.5469 101.207 21.8984 100.838 21.4141C100.468 20.9245 99.9756 20.6797 99.361 20.6797Z" fill="#F7F7F7"/>
<path d="M122.5 22.5625H113.5C113.192 22.5625 112.938 22.3075 112.938 22C112.938 21.6925 113.192 21.4375 113.5 21.4375H122.5C122.807 21.4375 123.062 21.6925 123.062 22C123.062 22.3075 122.807 22.5625 122.5 22.5625Z" fill="#F7F7F7"/>
<path d="M118 27.0625C117.692 27.0625 117.438 26.8075 117.438 26.5V17.5C117.438 17.1925 117.692 16.9375 118 16.9375C118.308 16.9375 118.562 17.1925 118.562 17.5V26.5C118.562 26.8075 118.308 27.0625 118 27.0625Z" fill="#F7F7F7"/>
</g>
<defs>
<filter id="filter0_d_1059_62" x="0" y="0" width="155" height="48" filterUnits="userSpaceOnUse" color-interpolation-filters="sRGB">
<feFlood flood-opacity="0" result="BackgroundImageFix"/>
<feColorMatrix in="SourceAlpha" type="matrix" values="0 0 0 0 0 0 0 0 0 0 0 0 0 0 0 0 0 0 127 0" result="hardAlpha"/>
<feOffset dy="2"/>
<feGaussianBlur stdDeviation="2"/>
<feComposite in2="hardAlpha" operator="out"/>
<feColorMatrix type="matrix" values="0 0 0 0 0.0156863 0 0 0 0 0.254902 0 0 0 0 0.286275 0 0 0 0.25 0"/>
<feBlend mode="normal" in2="BackgroundImageFix" result="effect1_dropShadow_1059_62"/>
<feBlend mode="normal" in="SourceGraphic" in2="effect1_dropShadow_1059_62" result="shape"/>
</filter>
<linearGradient id="paint0_linear_1059_62" x1="4" y1="22" x2="151" y2="22" gradientUnits="userSpaceOnUse">
<stop stop-color="#032C32"/>
<stop offset="1" stop-color="#098597"/>
</linearGradient>
</defs>
</svg>
