<svg width="129" height="28" viewBox="0 0 129 28" fill="none" xmlns="http://www.w3.org/2000/svg">
<rect x="0.5" width="128" height="28" rx="6" fill="#303030"/>
<path d="M13.3052 9.68799C15.9395 9.68799 17.5962 11.5098 17.5962 14.4233C17.5962 17.3369 15.9395 19.1523 13.3052 19.1523C10.6646 19.1523 9.01416 17.3369 9.01416 14.4233C9.01416 11.5098 10.6646 9.68799 13.3052 9.68799ZM13.3052 10.9385C11.5659 10.9385 10.4678 12.2842 10.4678 14.4233C10.4678 16.5562 11.5659 17.9019 13.3052 17.9019C15.0444 17.9019 16.1362 16.5562 16.1362 14.4233C16.1362 12.2842 15.0444 10.9385 13.3052 10.9385ZM22.2577 12.2144C23.9525 12.2144 25.0697 13.5474 25.0697 15.6611C25.0697 17.7749 23.9588 19.1143 22.2831 19.1143C21.3246 19.1143 20.5628 18.6445 20.182 17.9019H20.1502V21.209H18.7792V12.3223H20.1058V13.4712H20.1312C20.5248 12.7031 21.2928 12.2144 22.2577 12.2144ZM21.8959 17.9526C22.9813 17.9526 23.6605 17.064 23.6605 15.6611C23.6605 14.2646 22.9813 13.3696 21.8959 13.3696C20.8485 13.3696 20.1439 14.2837 20.1439 15.6611C20.1439 17.0513 20.8421 17.9526 21.8959 17.9526ZM28.9123 13.3062C27.9538 13.3062 27.281 14.0361 27.2111 15.0454H30.55C30.5183 14.0234 29.8708 13.3062 28.9123 13.3062ZM30.5437 17.0386H31.8449C31.6545 18.2573 30.4992 19.127 28.9694 19.127C27.008 19.127 25.821 17.8003 25.821 15.6929C25.821 13.5981 27.0271 12.2017 28.9123 12.2017C30.7658 12.2017 31.9211 13.5093 31.9211 15.5342V16.0039H27.2048V16.0864C27.2048 17.248 27.903 18.0161 29.0012 18.0161C29.7819 18.0161 30.3596 17.6226 30.5437 17.0386ZM32.9771 19V12.3223H34.2847V13.4395H34.3165C34.6783 12.6777 35.3892 12.208 36.4175 12.208C37.8902 12.208 38.7344 13.1475 38.7344 14.6772V19H37.357V14.9438C37.357 13.9409 36.8873 13.3887 35.9351 13.3887C34.9703 13.3887 34.3482 14.0742 34.3482 15.1089V19H32.9771ZM42.7253 19V12.3223H44.0964V19H42.7253ZM43.4109 11.3447C42.9729 11.3447 42.6174 10.9956 42.6174 10.564C42.6174 10.126 42.9729 9.77686 43.4109 9.77686C43.8552 9.77686 44.2107 10.126 44.2107 10.564C44.2107 10.9956 43.8552 11.3447 43.4109 11.3447ZM45.4889 19V12.3223H46.7965V13.4395H46.8282C47.19 12.6777 47.901 12.208 48.9293 12.208C50.402 12.208 51.2462 13.1475 51.2462 14.6772V19H49.8688V14.9438C49.8688 13.9409 49.399 13.3887 48.4469 13.3887C47.482 13.3887 46.86 14.0742 46.86 15.1089V19H45.4889ZM58.7474 19.1143C57.7698 19.1143 57.0145 18.6382 56.6019 17.8638H56.5765V19H55.2435V9.84033H56.6146V13.4585H56.6463C57.0462 12.6841 57.8079 12.2144 58.7537 12.2144C60.4358 12.2144 61.534 13.5474 61.534 15.6611C61.534 17.7812 60.4422 19.1143 58.7474 19.1143ZM58.3792 13.3696C57.3382 13.3696 56.6082 14.2837 56.6082 15.6611C56.6082 17.0513 57.3382 17.9526 58.3792 17.9526C59.4583 17.9526 60.1248 17.0767 60.1248 15.6611C60.1248 14.2583 59.4583 13.3696 58.3792 13.3696ZM62.5963 19V12.3223H63.904V13.4585H63.9357C64.1579 12.6777 64.7545 12.2144 65.5417 12.2144C65.7384 12.2144 65.9098 12.2461 66.0114 12.2651V13.541C65.9035 13.4966 65.6623 13.4648 65.3957 13.4648C64.5133 13.4648 63.9674 14.0552 63.9674 15.001V19H62.5963ZM69.4287 19.127C67.5181 19.127 66.2612 17.813 66.2612 15.6611C66.2612 13.5156 67.5244 12.2017 69.4287 12.2017C71.333 12.2017 72.5962 13.5156 72.5962 15.6611C72.5962 17.813 71.3394 19.127 69.4287 19.127ZM69.4287 17.9971C70.5078 17.9971 71.1997 17.1465 71.1997 15.6611C71.1997 14.1821 70.5015 13.3315 69.4287 13.3315C68.356 13.3315 67.6577 14.1821 67.6577 15.6611C67.6577 17.1465 68.356 17.9971 69.4287 17.9971ZM73.5252 14.2139C73.5252 13.0205 74.579 12.2017 76.1405 12.2017C77.6258 12.2017 78.6668 13.0332 78.7113 14.2202H77.4227C77.3592 13.6172 76.8705 13.2427 76.1024 13.2427C75.3597 13.2427 74.8646 13.6045 74.8646 14.1313C74.8646 14.5439 75.1947 14.8232 75.8866 14.9946L77.0101 15.2549C78.3558 15.5786 78.8636 16.0864 78.8636 17.0703C78.8636 18.2891 77.7274 19.127 76.0897 19.127C74.5091 19.127 73.4618 18.3081 73.3539 17.083H74.7123C74.8202 17.7241 75.3153 18.0796 76.1532 18.0796C76.9784 18.0796 77.4862 17.7368 77.4862 17.1973C77.4862 16.772 77.2323 16.5371 76.534 16.3594L75.3407 16.0674C74.1346 15.7754 73.5252 15.147 73.5252 14.2139ZM88.7302 12.3223L86.9021 19H85.4738L84.071 13.998H84.0393L82.6491 19H81.2336L79.3991 12.3223H80.7702L81.989 17.5781H82.0144L83.4045 12.3223H84.7248L86.1213 17.5781H86.153L87.3718 12.3223H88.7302ZM92.3126 13.3062C91.3541 13.3062 90.6812 14.0361 90.6114 15.0454H93.9502C93.9185 14.0234 93.271 13.3062 92.3126 13.3062ZM93.9439 17.0386H95.2452C95.0547 18.2573 93.8995 19.127 92.3697 19.127C90.4083 19.127 89.2212 17.8003 89.2212 15.6929C89.2212 13.5981 90.4273 12.2017 92.3126 12.2017C94.1661 12.2017 95.3213 13.5093 95.3213 15.5342V16.0039H90.605V16.0864C90.605 17.248 91.3033 18.0161 92.4014 18.0161C93.1822 18.0161 93.7598 17.6226 93.9439 17.0386ZM96.3773 19V12.3223H97.685V13.4585H97.7167C97.9389 12.6777 98.5356 12.2144 99.3227 12.2144C99.5194 12.2144 99.6908 12.2461 99.7924 12.2651V13.541C99.6845 13.4966 99.4433 13.4648 99.1767 13.4648C98.2943 13.4648 97.7484 14.0552 97.7484 15.001V19H96.3773Z" fill="#BDBDBD"/>
<path d="M113.75 21.5625H113C112.987 21.5625 112.971 21.5573 112.957 21.543C112.943 21.5287 112.938 21.5131 112.938 21.5C112.938 21.4869 112.943 21.4713 112.957 21.457C112.971 21.4427 112.987 21.4375 113 21.4375H113.75C115.514 21.4375 116.859 21.1289 117.744 20.2439C118.629 19.3588 118.938 18.014 118.938 16.25V11.75C118.938 9.98597 118.629 8.6412 117.744 7.75613C116.859 6.87107 115.514 6.5625 113.75 6.5625H109.25C107.486 6.5625 106.141 6.87107 105.256 7.75613C104.371 8.6412 104.062 9.98597 104.062 11.75V12.485C104.062 12.4981 104.057 12.5137 104.043 12.528C104.029 12.5423 104.013 12.5475 104 12.5475C103.987 12.5475 103.971 12.5423 103.957 12.528C103.943 12.5137 103.938 12.4981 103.938 12.485V11.75C103.938 9.77115 104.362 8.47805 105.17 7.67012C105.978 6.86218 107.271 6.4375 109.25 6.4375H113.75C115.729 6.4375 117.022 6.86218 117.83 7.67012C118.638 8.47805 119.062 9.77115 119.062 11.75V16.25C119.062 18.2289 118.638 19.522 117.83 20.3299C117.022 21.1378 115.729 21.5625 113.75 21.5625Z" fill="#BDBDBD" stroke="#BDBDBD"/>
<path d="M112.25 13.8125C112.108 13.8125 111.965 13.76 111.853 13.6475C111.635 13.43 111.635 13.07 111.853 12.8525L114.658 10.04H113C112.693 10.04 112.438 9.78504 112.438 9.47754C112.438 9.17004 112.685 8.91504 113 8.91504H116.008C116.233 8.91504 116.443 9.05004 116.525 9.26004C116.615 9.47004 116.563 9.71004 116.405 9.87504L112.648 13.6475C112.535 13.76 112.393 13.8125 112.25 13.8125Z" fill="#BDBDBD"/>
<path d="M116.008 13.055C115.7 13.055 115.445 12.8 115.445 12.4925V9.47754C115.445 9.17004 115.7 8.91504 116.008 8.91504C116.315 8.91504 116.57 9.17004 116.57 9.47754V12.485C116.57 12.8 116.315 13.055 116.008 13.055Z" fill="#BDBDBD"/>
<path d="M108.387 22.0625H106.363C104.368 22.0625 103.438 21.1325 103.438 19.1375V17.1125C103.438 15.1175 104.368 14.1875 106.363 14.1875H108.387C110.383 14.1875 111.312 15.1175 111.312 17.1125V19.1375C111.312 21.1325 110.383 22.0625 108.387 22.0625ZM106.363 15.3125C104.983 15.3125 104.562 15.7325 104.562 17.1125V19.1375C104.562 20.5175 104.983 20.9375 106.363 20.9375H108.387C109.767 20.9375 110.188 20.5175 110.188 19.1375V17.1125C110.188 15.7325 109.767 15.3125 108.387 15.3125H106.363Z" fill="#BDBDBD"/>
</svg>
