<svg width="98" height="48" viewBox="0 0 98 48" fill="none" xmlns="http://www.w3.org/2000/svg">
<g filter="url(#filter0_d_956_1682)">
<rect x="4" y="2" width="90" height="40" rx="8" fill="url(#paint0_linear_956_1682)"/>
<rect x="4.5" y="2.5" width="89" height="39" rx="7.5" stroke="#086F7E"/>
<path d="M28.5312 24.3281H30.4844C30.5469 24.8438 30.8125 25.2604 31.2812 25.5781C31.75 25.8906 32.3307 26.0469 33.0234 26.0469C33.7005 26.0469 34.2526 25.8958 34.6797 25.5938C35.112 25.2917 35.3281 24.9062 35.3281 24.4375C35.3281 24.0312 35.1719 23.7031 34.8594 23.4531C34.5469 23.1979 34.0365 22.987 33.3281 22.8203L31.8672 22.4766C30.8307 22.237 30.0599 21.8646 29.5547 21.3594C29.0547 20.8542 28.8047 20.1979 28.8047 19.3906C28.8047 18.3958 29.1953 17.5885 29.9766 16.9688C30.7578 16.349 31.7656 16.0391 33 16.0391C34.2396 16.0391 35.237 16.3464 35.9922 16.9609C36.7526 17.5703 37.1458 18.3724 37.1719 19.3672H35.25C35.2031 18.8411 34.9766 18.4297 34.5703 18.1328C34.1641 17.8307 33.6354 17.6797 32.9844 17.6797C32.349 17.6797 31.8333 17.8229 31.4375 18.1094C31.0469 18.3958 30.8516 18.7734 30.8516 19.2422C30.8516 19.6172 31.0026 19.9219 31.3047 20.1562C31.612 20.3906 32.112 20.5911 32.8047 20.7578L34.1016 21.0547C35.2422 21.3151 36.0703 21.6953 36.5859 22.1953C37.1016 22.6953 37.3594 23.3646 37.3594 24.2031C37.3594 25.2708 36.9583 26.1198 36.1562 26.75C35.3594 27.375 34.2786 27.6875 32.9141 27.6875C31.612 27.6875 30.5651 27.388 29.7734 26.7891C28.987 26.1849 28.5729 25.3646 28.5312 24.3281ZM38.6926 27.5V16.2266H40.6145V20.6406H40.6535C40.8775 20.1354 41.2134 19.7474 41.6613 19.4766C42.1093 19.2005 42.6457 19.0625 43.2707 19.0625C44.177 19.0625 44.8853 19.3411 45.3957 19.8984C45.9113 20.4505 46.1692 21.2057 46.1692 22.1641V27.5H44.2238V22.5625C44.2238 21.974 44.078 21.5182 43.7863 21.1953C43.4999 20.8724 43.078 20.7109 42.5207 20.7109C41.9374 20.7109 41.4764 20.8958 41.1379 21.2656C40.8046 21.6354 40.6379 22.1276 40.6379 22.7422V27.5H38.6926ZM50.7055 26.1641C51.2628 26.1641 51.7315 26 52.1117 25.6719C52.4972 25.3385 52.6899 24.9245 52.6899 24.4297V23.7969L50.7758 23.9141C50.3071 23.9453 49.9425 24.0625 49.6821 24.2656C49.4268 24.4635 49.2992 24.7266 49.2992 25.0547C49.2992 25.3932 49.4268 25.6641 49.6821 25.8672C49.9425 26.0651 50.2836 26.1641 50.7055 26.1641ZM50.1196 27.6328C49.3123 27.6328 48.6482 27.401 48.1274 26.9375C47.6117 26.474 47.3539 25.8724 47.3539 25.1328C47.3539 24.3984 47.6248 23.8177 48.1664 23.3906C48.7133 22.9635 49.4919 22.7188 50.5024 22.6562L52.6899 22.5312V21.9375C52.6899 21.5052 52.5518 21.1693 52.2758 20.9297C52.005 20.6901 51.6274 20.5703 51.143 20.5703C50.6899 20.5703 50.3201 20.6719 50.0336 20.875C49.7472 21.0781 49.5727 21.3542 49.5102 21.7031H47.7055C47.7472 20.9167 48.0831 20.2786 48.7133 19.7891C49.3487 19.2943 50.1847 19.0469 51.2211 19.0469C52.2472 19.0469 53.0675 19.2969 53.6821 19.7969C54.3018 20.2969 54.6117 20.9635 54.6117 21.7969V27.5H52.7367V26.1797H52.6977C52.4633 26.6224 52.1091 26.9766 51.6352 27.2422C51.1612 27.5026 50.656 27.6328 50.1196 27.6328ZM56.1325 27.5V19.2188H57.9996V20.6641H58.0387C58.1793 20.1589 58.4215 19.7682 58.7653 19.4922C59.1142 19.2161 59.5335 19.0781 60.0231 19.0781C60.195 19.0781 60.3981 19.1042 60.6325 19.1562V20.9141C60.4397 20.8411 60.1767 20.8047 59.8434 20.8047C59.2913 20.8047 58.859 20.9714 58.5465 21.3047C58.234 21.638 58.0778 22.0964 58.0778 22.6797V27.5H56.1325ZM64.8407 20.5547C64.299 20.5547 63.8459 20.7422 63.4813 21.1172C63.1219 21.487 62.9214 21.9635 62.8797 22.5469H66.7469C66.7261 21.9583 66.5412 21.4792 66.1922 21.1094C65.8433 20.7396 65.3927 20.5547 64.8407 20.5547ZM66.7547 25.0234H68.575C68.45 25.8099 68.0516 26.4479 67.3797 26.9375C66.7079 27.4219 65.8849 27.6641 64.911 27.6641C63.6714 27.6641 62.6974 27.2839 61.9891 26.5234C61.2808 25.7578 60.9266 24.7135 60.9266 23.3906C60.9266 22.0781 61.2782 21.026 61.9813 20.2344C62.6896 19.4427 63.6401 19.0469 64.8329 19.0469C66.0047 19.0469 66.9344 19.4245 67.6219 20.1797C68.3094 20.9297 68.6532 21.9349 68.6532 23.1953V23.8281H62.8641V23.9453C62.8641 24.612 63.0516 25.1484 63.4266 25.5547C63.8068 25.9609 64.3146 26.1641 64.95 26.1641C65.398 26.1641 65.7834 26.0625 66.1063 25.8594C66.4344 25.651 66.6506 25.3724 66.7547 25.0234Z" fill="#F7F7F7"/>
</g>
<defs>
<filter id="filter0_d_956_1682" x="0" y="0" width="98" height="48" filterUnits="userSpaceOnUse" color-interpolation-filters="sRGB">
<feFlood flood-opacity="0" result="BackgroundImageFix"/>
<feColorMatrix in="SourceAlpha" type="matrix" values="0 0 0 0 0 0 0 0 0 0 0 0 0 0 0 0 0 0 127 0" result="hardAlpha"/>
<feOffset dy="2"/>
<feGaussianBlur stdDeviation="2"/>
<feComposite in2="hardAlpha" operator="out"/>
<feColorMatrix type="matrix" values="0 0 0 0 0.0156863 0 0 0 0 0.254902 0 0 0 0 0.286275 0 0 0 0.25 0"/>
<feBlend mode="normal" in2="BackgroundImageFix" result="effect1_dropShadow_956_1682"/>
<feBlend mode="normal" in="SourceGraphic" in2="effect1_dropShadow_956_1682" result="shape"/>
</filter>
<linearGradient id="paint0_linear_956_1682" x1="4" y1="22" x2="94" y2="22" gradientUnits="userSpaceOnUse">
<stop stop-color="#032C32"/>
<stop offset="1" stop-color="#098597"/>
</linearGradient>
</defs>
</svg>
