<svg width="40" height="40" viewBox="0 0 40 40" fill="none" xmlns="http://www.w3.org/2000/svg">
<path d="M29.28 24.1398C29.28 24.9298 29.09 25.6798 28.71 26.3398C27.81 27.8998 25.98 28.7598 23.57 28.7598H16.44C14.02 28.7598 12.2 27.8998 11.3 26.3398C10.4 24.7798 10.57 22.7698 11.78 20.6698L15.34 14.4998C16.55 12.4098 18.21 11.2498 20.01 11.2498C21.81 11.2498 23.47 12.3998 24.68 14.4998L28.24 20.6698C28.93 21.8798 29.28 23.0598 29.28 24.1398ZM12.22 24.1398C12.22 24.6798 12.34 25.1598 12.59 25.5898C13.21 26.6698 14.58 27.2598 16.44 27.2598H23.56C25.42 27.2598 26.78 26.6698 27.41 25.5898C28.04 24.5098 27.86 23.0298 26.93 21.4198L23.37 15.2498C22.44 13.6398 21.25 12.7498 20 12.7498C18.75 12.7498 17.56 13.6398 16.63 15.2498L13.07 21.4198C12.51 22.3998 12.22 23.3198 12.22 24.1398Z" fill="#D7D7D7"/>
</svg>
