<svg width="40" height="40" viewBox="0 0 40 40" fill="none" xmlns="http://www.w3.org/2000/svg">
<path d="M29.3299 15.9203C28.9199 15.9203 28.5799 15.5803 28.5799 15.1703V13.3503C28.5799 12.6203 27.9899 12.0303 27.2599 12.0303H12.7399C12.0099 12.0303 11.4199 12.6203 11.4199 13.3503V15.1803C11.4199 15.5903 11.0799 15.9303 10.6699 15.9303C10.2599 15.9303 9.91992 15.5903 9.91992 15.1703V13.3503C9.91992 11.7903 11.1899 10.5303 12.7399 10.5303H27.2599C28.8199 10.5303 30.0799 11.8003 30.0799 13.3503V15.1803C30.0799 15.5903 29.7499 15.9203 29.3299 15.9203Z" fill="#D7D7D7"/>
<path d="M20 29.4704C19.59 29.4704 19.25 29.1304 19.25 28.7204V12.1104C19.25 11.7004 19.59 11.3604 20 11.3604C20.41 11.3604 20.75 11.7004 20.75 12.1104V28.7204C20.75 29.1404 20.41 29.4704 20 29.4704Z" fill="#D7D7D7"/>
<path d="M23.9401 29.4697H16.0601C15.6501 29.4697 15.3101 29.1297 15.3101 28.7197C15.3101 28.3097 15.6501 27.9697 16.0601 27.9697H23.9401C24.3501 27.9697 24.6901 28.3097 24.6901 28.7197C24.6901 29.1297 24.3501 29.4697 23.9401 29.4697Z" fill="#D7D7D7"/>
</svg>
