<svg width="19" height="18" viewBox="0 0 19 18" fill="none" xmlns="http://www.w3.org/2000/svg">
<path d="M13.758 5.60834L5.35805 14.0083C5.34586 14.0205 5.32639 14.0302 5.29972 14.0302C5.27304 14.0302 5.25358 14.0205 5.24139 14.0083C5.22919 13.9961 5.21944 13.9766 5.21944 13.95C5.21944 13.9233 5.22919 13.9038 5.24139 13.8916L13.6413 5.49167C13.6535 5.47948 13.673 5.46972 13.6997 5.46972C13.7263 5.46972 13.7458 5.47948 13.758 5.49167C13.7702 5.50387 13.7799 5.52333 13.7799 5.55001C13.7799 5.57668 13.7702 5.59615 13.758 5.60834Z" fill="#BDBDBD" stroke="#BDBDBD" stroke-width="1.31992"/>
<path d="M14.2247 14.475C13.9377 14.762 13.4617 14.762 13.1747 14.475L4.77472 6.07505C4.48772 5.78805 4.48772 5.31205 4.77472 5.02505C5.06172 4.73805 5.53772 4.73805 5.82471 5.02505L14.2247 13.425C14.5117 13.712 14.5117 14.188 14.2247 14.475Z" fill="#BDBDBD"/>
</svg>
