<svg width="19" height="18" viewBox="0 0 19 18" fill="none" xmlns="http://www.w3.org/2000/svg">
<path d="M8.825 16.5625H5.675C4.27119 16.5625 3.36908 16.2488 2.81012 15.6899C2.25115 15.1309 1.9375 14.2288 1.9375 12.825V9.675C1.9375 8.27119 2.25115 7.36908 2.81012 6.81012C3.36908 6.25115 4.27119 5.9375 5.675 5.9375H8.825C10.2288 5.9375 11.1309 6.25115 11.6899 6.81012C12.2488 7.36908 12.5625 8.27119 12.5625 9.675V12.825C12.5625 14.2288 12.2488 15.1309 11.6899 15.6899C11.1309 16.2488 10.2288 16.5625 8.825 16.5625ZM5.675 6.0625C4.48295 6.0625 3.52841 6.25824 2.89332 6.89332C2.25824 7.52841 2.0625 8.48295 2.0625 9.675V12.825C2.0625 14.017 2.25824 14.9716 2.89332 15.6067C3.52841 16.2418 4.48295 16.4375 5.675 16.4375H8.825C10.017 16.4375 10.9716 16.2418 11.6067 15.6067C12.2418 14.9716 12.4375 14.017 12.4375 12.825V9.675C12.4375 8.48295 12.2418 7.52841 11.6067 6.89332C10.9716 6.25824 10.017 6.0625 8.825 6.0625H5.675Z" fill="#BDBDBD" stroke="#BDBDBD"/>
<path d="M13.325 12.5625H12.5C12.1925 12.5625 11.9375 12.3075 11.9375 12V9.675C11.9375 7.35 11.15 6.5625 8.825 6.5625H6.5C6.1925 6.5625 5.9375 6.3075 5.9375 6V5.175C5.9375 2.2425 7.2425 0.9375 10.175 0.9375H13.325C16.2575 0.9375 17.5625 2.2425 17.5625 5.175V8.325C17.5625 11.2575 16.2575 12.5625 13.325 12.5625ZM13.0625 11.4375H13.325C15.65 11.4375 16.4375 10.65 16.4375 8.325V5.175C16.4375 2.85 15.65 2.0625 13.325 2.0625H10.175C7.85 2.0625 7.0625 2.85 7.0625 5.175V5.4375H8.825C11.7575 5.4375 13.0625 6.7425 13.0625 9.675V11.4375Z" fill="#BDBDBD"/>
</svg>
