<svg width="24" height="24" viewBox="0 0 24 24" fill="none" xmlns="http://www.w3.org/2000/svg">
<path d="M9.00146 1.25005H15.0015C20.4315 1.25005 22.7515 3.57005 22.7515 9.00006V15.0001C22.7515 20.4301 20.4315 22.7501 15.0015 22.7501H9.00146C3.57146 22.7501 1.25146 20.4301 1.25146 15.0001V9.00006C1.25146 3.57005 3.57146 1.25005 9.00146 1.25005ZM15.0015 21.2501C19.6115 21.2501 21.2515 19.6101 21.2515 15.0001V9.00006C21.2515 4.39005 19.6115 2.75005 15.0015 2.75005H9.00146C4.39146 2.75005 2.75146 4.39005 2.75146 9.00006V15.0001C2.75146 19.6101 4.39146 21.2501 9.00146 21.2501H15.0015Z" fill="#5A5A5A"/>
<path d="M15.0015 1.25005C15.4115 1.25005 15.7515 1.59005 15.7515 2.00005L15.7515 22.0001C15.7515 22.4101 15.4115 22.7501 15.0015 22.7501C14.5915 22.7501 14.2515 22.4101 14.2515 22.0001L14.2515 2.00005C14.2515 1.59005 14.5915 1.25005 15.0015 1.25005Z" fill="#5A5A5A"/>
</svg>
